M48
; DRILL file {KiCad 7.0.2-0} date 2024 May 25, Saturday 15:49:52
; FORMAT={-:-/ absolute / inch / decimal}
; #@! TF.CreationDate,2024-05-25T15:49:52+01:00
; #@! TF.GenerationSoftware,Kicad,Pcbnew,7.0.2-0
; #@! TF.FileFunction,MixedPlating,1,2
FMAT,2
INCH
; #@! TA.AperFunction,Plated,PTH,ViaDrill
T1C0.0150
; #@! TA.AperFunction,Plated,PTH,ComponentDrill
T2C0.0236
; #@! TA.AperFunction,Plated,PTH,ComponentDrill
T3C0.0315
; #@! TA.AperFunction,Plated,PTH,ComponentDrill
T4C0.0394
; #@! TA.AperFunction,Plated,PTH,ComponentDrill
T5C0.0433
; #@! TA.AperFunction,Plated,PTH,ComponentDrill
T6C0.1260
; #@! TA.AperFunction,NonPlated,NPTH,ComponentDrill
T7C0.0197
%
G90
G05
T1
X4.87Y-3.24
T3
X3.225Y-1.26
X3.425Y-2.965
X3.425Y-3.365
X3.545Y-2.965
X3.545Y-3.365
X3.57Y-2.795
X3.625Y-1.26
X3.67Y-2.795
X3.67Y-2.975
X3.67Y-3.1719
X3.72Y-4.195
X3.72Y-4.595
X3.72Y-4.71
X3.72Y-5.11
X3.77Y-2.795
X3.795Y-2.96
X3.795Y-3.36
X3.81Y-1.265
X3.915Y-2.96
X3.915Y-3.36
X4.035Y-2.96
X4.035Y-3.36
X4.21Y-1.265
X4.465Y-3.735
X4.465Y-4.135
X4.47Y-4.2331
X4.47Y-4.43
X4.53Y-4.6
X4.53Y-5.0
X4.6Y-3.535
X4.6Y-3.935
X4.61Y-2.4531
X4.61Y-2.65
X4.61Y-2.75
X4.61Y-3.15
X4.65Y-4.4331
X4.65Y-4.63
X4.65Y-4.73
X4.65Y-4.9269
X4.65Y-5.03
X4.65Y-5.2269
X4.725Y-2.445
X4.725Y-2.565
X4.725Y-2.685
X4.76Y-2.99
X4.76Y-3.09
X4.76Y-3.19
X4.76Y-3.29
X4.76Y-3.39
X4.76Y-3.49
X4.76Y-3.59
X4.76Y-3.69
X4.76Y-3.815
X4.76Y-4.0119
X4.7631Y-2.855
X4.7913Y-4.47
X4.7913Y-4.57
X4.7913Y-4.67
X4.7913Y-4.77
X4.7913Y-4.87
X4.7913Y-4.97
X4.7913Y-5.07
X4.9281Y-2.32
X4.96Y-2.855
X5.0524Y-1.63
X5.06Y-2.99
X5.06Y-3.09
X5.06Y-3.19
X5.06Y-3.29
X5.06Y-3.39
X5.06Y-3.49
X5.06Y-3.59
X5.06Y-3.69
X5.0913Y-4.47
X5.0913Y-4.57
X5.0913Y-4.67
X5.0913Y-4.77
X5.0913Y-4.87
X5.0913Y-4.97
X5.0913Y-5.07
X5.11Y-1.8792
X5.125Y-2.32
X5.125Y-2.445
X5.125Y-2.565
X5.125Y-2.685
X5.1311Y-1.63
X5.21Y-1.8792
X5.23Y-4.4331
X5.23Y-4.63
X5.23Y-4.73
X5.23Y-4.9269
X5.23Y-5.03
X5.23Y-5.2269
X5.27Y-2.76
X5.27Y-3.16
X5.275Y-3.41
X5.275Y-3.81
X5.3Y-2.04
X5.3Y-2.44
X5.31Y-1.8792
X5.34Y-1.45
X5.35Y-4.605
X5.35Y-5.005
X5.4187Y-1.45
X5.425Y-3.8
X5.425Y-4.2
X5.425Y-4.2981
X5.425Y-4.495
X5.43Y-1.65
X5.43Y-2.05
X5.43Y-2.15
X5.43Y-2.3469
T4
X3.2382Y-2.9252
X3.2382Y-3.0252
X3.2382Y-3.1252
X3.2382Y-3.2252
X3.2382Y-3.3252
X3.2382Y-3.4252
X3.3268Y-1.8504
X3.3268Y-2.6378
X3.4252Y-1.8504
X3.4252Y-2.6378
X3.5236Y-1.8504
X3.5236Y-2.6378
X3.9173Y-1.8504
X3.9173Y-2.6378
X4.0157Y-1.8504
X4.0157Y-2.6378
X4.1142Y-1.8504
X4.1142Y-2.6378
X4.2028Y-2.9252
X4.2028Y-3.0252
X4.2028Y-3.1252
X4.2028Y-3.2252
X4.2028Y-3.3252
X4.2028Y-3.4252
X4.4587Y-2.9252
X4.4587Y-3.0252
X4.4587Y-3.1252
X4.4587Y-3.2252
X4.4587Y-3.3252
X4.4587Y-3.4252
X4.5374Y-1.5157
X4.5374Y-1.6157
X4.5374Y-1.7157
X4.5374Y-1.8157
X4.5374Y-1.9157
X4.6374Y-1.5157
X4.6374Y-1.6157
X4.6374Y-1.7157
X4.6374Y-1.8157
X4.6374Y-1.9157
X5.4232Y-2.9252
X5.4232Y-3.0252
X5.4232Y-3.1252
X5.4232Y-3.2252
X5.4232Y-3.3252
X5.4232Y-3.4252
T5
X4.895Y-1.26
X4.91Y-1.385
X4.91Y-1.785
X5.295Y-1.26
T6
X3.7205Y-2.0276
X3.7205Y-5.2953
X4.9409Y-2.0276
X4.9409Y-5.2953
T7
X4.3012Y-1.7421
X4.3012Y-1.7717
X4.3012Y-1.8012
X4.3012Y-2.3524
X4.3012Y-2.3819
X4.3012Y-2.4114
X4.3012Y-2.9626
X4.3012Y-2.9921
X4.3012Y-3.0217
X4.3012Y-3.5728
X4.3012Y-3.6024
X4.3012Y-3.6319
X4.3012Y-4.1831
X4.3012Y-4.2126
X4.3012Y-4.2421
X4.3012Y-4.7933
X4.3012Y-4.8228
X4.3012Y-4.8524
X4.3602Y-1.7421
X4.3602Y-1.7717
X4.3602Y-1.8012
X4.3602Y-2.3524
X4.3602Y-2.3819
X4.3602Y-2.4114
X4.3602Y-2.9626
X4.3602Y-2.9921
X4.3602Y-3.0217
X4.3602Y-3.5728
X4.3602Y-3.6024
X4.3602Y-3.6319
X4.3602Y-4.1831
X4.3602Y-4.2126
X4.3602Y-4.2421
X4.3602Y-4.7933
X4.3602Y-4.8228
X4.3602Y-4.8524
T2
G00X3.4449Y-3.6457
M15
G01X3.4055Y-3.6457
M16
G05
G00X3.4449Y-3.9724
M15
G01X3.4055Y-3.9724
M16
G05
G00X3.4449Y-4.0945
M15
G01X3.4055Y-4.0945
M16
G05
G00X3.4449Y-4.2354
M15
G01X3.4055Y-4.2354
M16
G05
G00X3.4449Y-4.5622
M15
G01X3.4055Y-4.5622
M16
G05
G00X3.4449Y-4.6843
M15
G01X3.4055Y-4.6843
M16
G05
G00X3.4449Y-4.826
M15
G01X3.4055Y-4.826
M16
G05
G00X3.4449Y-5.1528
M15
G01X3.4055Y-5.1528
M16
G05
G00X3.4449Y-5.2748
M15
G01X3.4055Y-5.2748
M16
G05
G00X4.0354Y-3.6449
M15
G01X3.9961Y-3.6449
M16
G05
G00X4.0354Y-3.9717
M15
G01X3.9961Y-3.9717
M16
G05
G00X4.0354Y-4.0937
M15
G01X3.9961Y-4.0937
M16
G05
G00X4.0354Y-4.2354
M15
G01X3.9961Y-4.2354
M16
G05
G00X4.0354Y-4.5622
M15
G01X3.9961Y-4.5622
M16
G05
G00X4.0354Y-4.6843
M15
G01X3.9961Y-4.6843
M16
G05
G00X4.0354Y-4.826
M15
G01X3.9961Y-4.826
M16
G05
G00X4.0354Y-5.1528
M15
G01X3.9961Y-5.1528
M16
G05
G00X4.0354Y-5.2748
M15
G01X3.9961Y-5.2748
M16
G05
T5
G00X3.2362Y-1.5413
M15
G01X3.2362Y-1.5689
M16
G05
G00X3.2362Y-2.3287
M15
G01X3.2362Y-2.3563
M16
G05
G00X3.6142Y-1.5413
M15
G01X3.6142Y-1.5689
M16
G05
G00X3.6142Y-2.3287
M15
G01X3.6142Y-2.3563
M16
G05
G00X3.8268Y-1.5413
M15
G01X3.8268Y-1.5689
M16
G05
G00X3.8268Y-2.3287
M15
G01X3.8268Y-2.3563
M16
G05
G00X4.2047Y-1.5413
M15
G01X4.2047Y-1.5689
M16
G05
G00X4.2047Y-2.3287
M15
G01X4.2047Y-2.3563
M16
G05
T0
M30
