%TF.GenerationSoftware,KiCad,Pcbnew,8.0.3*%
%TF.CreationDate,2024-07-04T10:47:54+01:00*%
%TF.ProjectId,dual-vca,6475616c-2d76-4636-912e-6b696361645f,rev?*%
%TF.SameCoordinates,Original*%
%TF.FileFunction,Profile,NP*%
%FSLAX46Y46*%
G04 Gerber Fmt 4.6, Leading zero omitted, Abs format (unit mm)*
G04 Created by KiCad (PCBNEW 8.0.3) date 2024-07-04 10:47:54*
%MOMM*%
%LPD*%
G01*
G04 APERTURE LIST*
%TA.AperFunction,Profile*%
%ADD10C,0.050000*%
%TD*%
G04 APERTURE END LIST*
D10*
X109000000Y-78000000D02*
X109000000Y-89500000D01*
X109000000Y-47000000D02*
X109000000Y-58500000D01*
X111000000Y-137000000D02*
X111000000Y-124500000D01*
X111000000Y-89500000D02*
X111000000Y-78000000D01*
X111000000Y-120500000D02*
X111000000Y-109000000D01*
X109000000Y-137000000D02*
G75*
G02*
X108000000Y-138000000I-1000000J0D01*
G01*
X111000000Y-31000000D02*
G75*
G02*
X112000000Y-30000000I1000000J0D01*
G01*
X111000000Y-74000000D02*
X111000000Y-62500000D01*
X111000000Y-43000000D02*
X111000000Y-31000000D01*
X109000000Y-109000000D02*
X109000000Y-120500000D01*
X139000000Y-30000000D02*
G75*
G02*
X140000000Y-31000000I0J-1000000D01*
G01*
X111000000Y-105000000D02*
X111000000Y-93500000D01*
X109000000Y-93500000D02*
X109000000Y-105000000D01*
X112000000Y-30000000D02*
X139000000Y-30000000D01*
X109000000Y-31000000D02*
X109000000Y-43000000D01*
X80000000Y-31000000D02*
G75*
G02*
X81000000Y-30000000I1000000J0D01*
G01*
X140000000Y-137000000D02*
G75*
G02*
X139000000Y-138000000I-1000000J0D01*
G01*
X81000000Y-138000000D02*
G75*
G02*
X80000000Y-137000000I0J1000000D01*
G01*
X81000000Y-30000000D02*
X108000000Y-30000000D01*
X111000000Y-58500000D02*
X111000000Y-47000000D01*
X140000000Y-31000000D02*
X140000000Y-137000000D01*
X139000000Y-138000000D02*
X112000000Y-138000000D01*
X109000000Y-124500000D02*
X109000000Y-137000000D01*
X108000000Y-138000000D02*
X81000000Y-138000000D01*
X109000000Y-62500000D02*
X109000000Y-74000000D01*
X112000000Y-138000000D02*
G75*
G02*
X111000000Y-137000000I0J1000000D01*
G01*
X108000000Y-30000000D02*
G75*
G02*
X109000000Y-31000000I0J-1000000D01*
G01*
X80000000Y-137000000D02*
X80000000Y-31000000D01*
%TO.C,mouse-bite-2mm-slot*%
X109000000Y-47000000D02*
G75*
G02*
X111000000Y-47000000I1000000J0D01*
G01*
X111000000Y-43000000D02*
G75*
G02*
X109000000Y-43000000I-1000000J0D01*
G01*
X109000000Y-62500000D02*
G75*
G02*
X111000000Y-62500000I1000000J0D01*
G01*
X111000000Y-58500000D02*
G75*
G02*
X109000000Y-58500000I-1000000J0D01*
G01*
X109000000Y-78000000D02*
G75*
G02*
X111000000Y-78000000I1000000J0D01*
G01*
X111000000Y-74000000D02*
G75*
G02*
X109000000Y-74000000I-1000000J0D01*
G01*
X109000000Y-124500000D02*
G75*
G02*
X111000000Y-124500000I1000000J0D01*
G01*
X111000000Y-120500000D02*
G75*
G02*
X109000000Y-120500000I-1000000J0D01*
G01*
X109000000Y-93500000D02*
G75*
G02*
X111000000Y-93500000I1000000J0D01*
G01*
X111000000Y-89500000D02*
G75*
G02*
X109000000Y-89500000I-1000000J0D01*
G01*
X109000000Y-109000000D02*
G75*
G02*
X111000000Y-109000000I1000000J0D01*
G01*
X111000000Y-105000000D02*
G75*
G02*
X109000000Y-105000000I-1000000J0D01*
G01*
%TD*%
M02*
