%TF.GenerationSoftware,KiCad,Pcbnew,8.0.3*%
%TF.CreationDate,2024-07-04T10:47:54+01:00*%
%TF.ProjectId,dual-vca,6475616c-2d76-4636-912e-6b696361645f,rev?*%
%TF.SameCoordinates,Original*%
%TF.FileFunction,Legend,Bot*%
%TF.FilePolarity,Positive*%
%FSLAX46Y46*%
G04 Gerber Fmt 4.6, Leading zero omitted, Abs format (unit mm)*
G04 Created by KiCad (PCBNEW 8.0.3) date 2024-07-04 10:47:54*
%MOMM*%
%LPD*%
G01*
G04 APERTURE LIST*
%ADD10C,0.150000*%
%ADD11C,0.120000*%
%ADD12C,0.200000*%
G04 APERTURE END LIST*
D10*
X107275238Y-54239819D02*
X107608571Y-53763628D01*
X107846666Y-54239819D02*
X107846666Y-53239819D01*
X107846666Y-53239819D02*
X107465714Y-53239819D01*
X107465714Y-53239819D02*
X107370476Y-53287438D01*
X107370476Y-53287438D02*
X107322857Y-53335057D01*
X107322857Y-53335057D02*
X107275238Y-53430295D01*
X107275238Y-53430295D02*
X107275238Y-53573152D01*
X107275238Y-53573152D02*
X107322857Y-53668390D01*
X107322857Y-53668390D02*
X107370476Y-53716009D01*
X107370476Y-53716009D02*
X107465714Y-53763628D01*
X107465714Y-53763628D02*
X107846666Y-53763628D01*
X106989523Y-53239819D02*
X106656190Y-54239819D01*
X106656190Y-54239819D02*
X106322857Y-53239819D01*
X105465714Y-54239819D02*
X106037142Y-54239819D01*
X105751428Y-54239819D02*
X105751428Y-53239819D01*
X105751428Y-53239819D02*
X105846666Y-53382676D01*
X105846666Y-53382676D02*
X105941904Y-53477914D01*
X105941904Y-53477914D02*
X106037142Y-53525533D01*
X138083333Y-88784819D02*
X138083333Y-89499104D01*
X138083333Y-89499104D02*
X138130952Y-89641961D01*
X138130952Y-89641961D02*
X138226190Y-89737200D01*
X138226190Y-89737200D02*
X138369047Y-89784819D01*
X138369047Y-89784819D02*
X138464285Y-89784819D01*
X137464285Y-89213390D02*
X137559523Y-89165771D01*
X137559523Y-89165771D02*
X137607142Y-89118152D01*
X137607142Y-89118152D02*
X137654761Y-89022914D01*
X137654761Y-89022914D02*
X137654761Y-88975295D01*
X137654761Y-88975295D02*
X137607142Y-88880057D01*
X137607142Y-88880057D02*
X137559523Y-88832438D01*
X137559523Y-88832438D02*
X137464285Y-88784819D01*
X137464285Y-88784819D02*
X137273809Y-88784819D01*
X137273809Y-88784819D02*
X137178571Y-88832438D01*
X137178571Y-88832438D02*
X137130952Y-88880057D01*
X137130952Y-88880057D02*
X137083333Y-88975295D01*
X137083333Y-88975295D02*
X137083333Y-89022914D01*
X137083333Y-89022914D02*
X137130952Y-89118152D01*
X137130952Y-89118152D02*
X137178571Y-89165771D01*
X137178571Y-89165771D02*
X137273809Y-89213390D01*
X137273809Y-89213390D02*
X137464285Y-89213390D01*
X137464285Y-89213390D02*
X137559523Y-89261009D01*
X137559523Y-89261009D02*
X137607142Y-89308628D01*
X137607142Y-89308628D02*
X137654761Y-89403866D01*
X137654761Y-89403866D02*
X137654761Y-89594342D01*
X137654761Y-89594342D02*
X137607142Y-89689580D01*
X137607142Y-89689580D02*
X137559523Y-89737200D01*
X137559523Y-89737200D02*
X137464285Y-89784819D01*
X137464285Y-89784819D02*
X137273809Y-89784819D01*
X137273809Y-89784819D02*
X137178571Y-89737200D01*
X137178571Y-89737200D02*
X137130952Y-89689580D01*
X137130952Y-89689580D02*
X137083333Y-89594342D01*
X137083333Y-89594342D02*
X137083333Y-89403866D01*
X137083333Y-89403866D02*
X137130952Y-89308628D01*
X137130952Y-89308628D02*
X137178571Y-89261009D01*
X137178571Y-89261009D02*
X137273809Y-89213390D01*
X89833333Y-90174819D02*
X89833333Y-90889104D01*
X89833333Y-90889104D02*
X89880952Y-91031961D01*
X89880952Y-91031961D02*
X89976190Y-91127200D01*
X89976190Y-91127200D02*
X90119047Y-91174819D01*
X90119047Y-91174819D02*
X90214285Y-91174819D01*
X89404761Y-90270057D02*
X89357142Y-90222438D01*
X89357142Y-90222438D02*
X89261904Y-90174819D01*
X89261904Y-90174819D02*
X89023809Y-90174819D01*
X89023809Y-90174819D02*
X88928571Y-90222438D01*
X88928571Y-90222438D02*
X88880952Y-90270057D01*
X88880952Y-90270057D02*
X88833333Y-90365295D01*
X88833333Y-90365295D02*
X88833333Y-90460533D01*
X88833333Y-90460533D02*
X88880952Y-90603390D01*
X88880952Y-90603390D02*
X89452380Y-91174819D01*
X89452380Y-91174819D02*
X88833333Y-91174819D01*
X104833333Y-120154819D02*
X104833333Y-120869104D01*
X104833333Y-120869104D02*
X104880952Y-121011961D01*
X104880952Y-121011961D02*
X104976190Y-121107200D01*
X104976190Y-121107200D02*
X105119047Y-121154819D01*
X105119047Y-121154819D02*
X105214285Y-121154819D01*
X103928571Y-120154819D02*
X104119047Y-120154819D01*
X104119047Y-120154819D02*
X104214285Y-120202438D01*
X104214285Y-120202438D02*
X104261904Y-120250057D01*
X104261904Y-120250057D02*
X104357142Y-120392914D01*
X104357142Y-120392914D02*
X104404761Y-120583390D01*
X104404761Y-120583390D02*
X104404761Y-120964342D01*
X104404761Y-120964342D02*
X104357142Y-121059580D01*
X104357142Y-121059580D02*
X104309523Y-121107200D01*
X104309523Y-121107200D02*
X104214285Y-121154819D01*
X104214285Y-121154819D02*
X104023809Y-121154819D01*
X104023809Y-121154819D02*
X103928571Y-121107200D01*
X103928571Y-121107200D02*
X103880952Y-121059580D01*
X103880952Y-121059580D02*
X103833333Y-120964342D01*
X103833333Y-120964342D02*
X103833333Y-120726247D01*
X103833333Y-120726247D02*
X103880952Y-120631009D01*
X103880952Y-120631009D02*
X103928571Y-120583390D01*
X103928571Y-120583390D02*
X104023809Y-120535771D01*
X104023809Y-120535771D02*
X104214285Y-120535771D01*
X104214285Y-120535771D02*
X104309523Y-120583390D01*
X104309523Y-120583390D02*
X104357142Y-120631009D01*
X104357142Y-120631009D02*
X104404761Y-120726247D01*
X104833333Y-90154819D02*
X104833333Y-90869104D01*
X104833333Y-90869104D02*
X104880952Y-91011961D01*
X104880952Y-91011961D02*
X104976190Y-91107200D01*
X104976190Y-91107200D02*
X105119047Y-91154819D01*
X105119047Y-91154819D02*
X105214285Y-91154819D01*
X103833333Y-91154819D02*
X104404761Y-91154819D01*
X104119047Y-91154819D02*
X104119047Y-90154819D01*
X104119047Y-90154819D02*
X104214285Y-90297676D01*
X104214285Y-90297676D02*
X104309523Y-90392914D01*
X104309523Y-90392914D02*
X104404761Y-90440533D01*
X83150238Y-34239819D02*
X83483571Y-33763628D01*
X83721666Y-34239819D02*
X83721666Y-33239819D01*
X83721666Y-33239819D02*
X83340714Y-33239819D01*
X83340714Y-33239819D02*
X83245476Y-33287438D01*
X83245476Y-33287438D02*
X83197857Y-33335057D01*
X83197857Y-33335057D02*
X83150238Y-33430295D01*
X83150238Y-33430295D02*
X83150238Y-33573152D01*
X83150238Y-33573152D02*
X83197857Y-33668390D01*
X83197857Y-33668390D02*
X83245476Y-33716009D01*
X83245476Y-33716009D02*
X83340714Y-33763628D01*
X83340714Y-33763628D02*
X83721666Y-33763628D01*
X82864523Y-33239819D02*
X82531190Y-34239819D01*
X82531190Y-34239819D02*
X82197857Y-33239819D01*
X81435952Y-33573152D02*
X81435952Y-34239819D01*
X81674047Y-33192200D02*
X81912142Y-33906485D01*
X81912142Y-33906485D02*
X81293095Y-33906485D01*
X83150238Y-54239819D02*
X83483571Y-53763628D01*
X83721666Y-54239819D02*
X83721666Y-53239819D01*
X83721666Y-53239819D02*
X83340714Y-53239819D01*
X83340714Y-53239819D02*
X83245476Y-53287438D01*
X83245476Y-53287438D02*
X83197857Y-53335057D01*
X83197857Y-53335057D02*
X83150238Y-53430295D01*
X83150238Y-53430295D02*
X83150238Y-53573152D01*
X83150238Y-53573152D02*
X83197857Y-53668390D01*
X83197857Y-53668390D02*
X83245476Y-53716009D01*
X83245476Y-53716009D02*
X83340714Y-53763628D01*
X83340714Y-53763628D02*
X83721666Y-53763628D01*
X82864523Y-53239819D02*
X82531190Y-54239819D01*
X82531190Y-54239819D02*
X82197857Y-53239819D01*
X81912142Y-53335057D02*
X81864523Y-53287438D01*
X81864523Y-53287438D02*
X81769285Y-53239819D01*
X81769285Y-53239819D02*
X81531190Y-53239819D01*
X81531190Y-53239819D02*
X81435952Y-53287438D01*
X81435952Y-53287438D02*
X81388333Y-53335057D01*
X81388333Y-53335057D02*
X81340714Y-53430295D01*
X81340714Y-53430295D02*
X81340714Y-53525533D01*
X81340714Y-53525533D02*
X81388333Y-53668390D01*
X81388333Y-53668390D02*
X81959761Y-54239819D01*
X81959761Y-54239819D02*
X81340714Y-54239819D01*
X89833333Y-120154819D02*
X89833333Y-120869104D01*
X89833333Y-120869104D02*
X89880952Y-121011961D01*
X89880952Y-121011961D02*
X89976190Y-121107200D01*
X89976190Y-121107200D02*
X90119047Y-121154819D01*
X90119047Y-121154819D02*
X90214285Y-121154819D01*
X89452380Y-120154819D02*
X88785714Y-120154819D01*
X88785714Y-120154819D02*
X89214285Y-121154819D01*
X104833333Y-105154819D02*
X104833333Y-105869104D01*
X104833333Y-105869104D02*
X104880952Y-106011961D01*
X104880952Y-106011961D02*
X104976190Y-106107200D01*
X104976190Y-106107200D02*
X105119047Y-106154819D01*
X105119047Y-106154819D02*
X105214285Y-106154819D01*
X104452380Y-105154819D02*
X103833333Y-105154819D01*
X103833333Y-105154819D02*
X104166666Y-105535771D01*
X104166666Y-105535771D02*
X104023809Y-105535771D01*
X104023809Y-105535771D02*
X103928571Y-105583390D01*
X103928571Y-105583390D02*
X103880952Y-105631009D01*
X103880952Y-105631009D02*
X103833333Y-105726247D01*
X103833333Y-105726247D02*
X103833333Y-105964342D01*
X103833333Y-105964342D02*
X103880952Y-106059580D01*
X103880952Y-106059580D02*
X103928571Y-106107200D01*
X103928571Y-106107200D02*
X104023809Y-106154819D01*
X104023809Y-106154819D02*
X104309523Y-106154819D01*
X104309523Y-106154819D02*
X104404761Y-106107200D01*
X104404761Y-106107200D02*
X104452380Y-106059580D01*
X89833333Y-105154819D02*
X89833333Y-105869104D01*
X89833333Y-105869104D02*
X89880952Y-106011961D01*
X89880952Y-106011961D02*
X89976190Y-106107200D01*
X89976190Y-106107200D02*
X90119047Y-106154819D01*
X90119047Y-106154819D02*
X90214285Y-106154819D01*
X88928571Y-105488152D02*
X88928571Y-106154819D01*
X89166666Y-105107200D02*
X89404761Y-105821485D01*
X89404761Y-105821485D02*
X88785714Y-105821485D01*
X114059523Y-88784819D02*
X114059523Y-89499104D01*
X114059523Y-89499104D02*
X114107142Y-89641961D01*
X114107142Y-89641961D02*
X114202380Y-89737200D01*
X114202380Y-89737200D02*
X114345237Y-89784819D01*
X114345237Y-89784819D02*
X114440475Y-89784819D01*
X113059523Y-89784819D02*
X113630951Y-89784819D01*
X113345237Y-89784819D02*
X113345237Y-88784819D01*
X113345237Y-88784819D02*
X113440475Y-88927676D01*
X113440475Y-88927676D02*
X113535713Y-89022914D01*
X113535713Y-89022914D02*
X113630951Y-89070533D01*
X112678570Y-88880057D02*
X112630951Y-88832438D01*
X112630951Y-88832438D02*
X112535713Y-88784819D01*
X112535713Y-88784819D02*
X112297618Y-88784819D01*
X112297618Y-88784819D02*
X112202380Y-88832438D01*
X112202380Y-88832438D02*
X112154761Y-88880057D01*
X112154761Y-88880057D02*
X112107142Y-88975295D01*
X112107142Y-88975295D02*
X112107142Y-89070533D01*
X112107142Y-89070533D02*
X112154761Y-89213390D01*
X112154761Y-89213390D02*
X112726189Y-89784819D01*
X112726189Y-89784819D02*
X112107142Y-89784819D01*
X98150238Y-34239819D02*
X98483571Y-33763628D01*
X98721666Y-34239819D02*
X98721666Y-33239819D01*
X98721666Y-33239819D02*
X98340714Y-33239819D01*
X98340714Y-33239819D02*
X98245476Y-33287438D01*
X98245476Y-33287438D02*
X98197857Y-33335057D01*
X98197857Y-33335057D02*
X98150238Y-33430295D01*
X98150238Y-33430295D02*
X98150238Y-33573152D01*
X98150238Y-33573152D02*
X98197857Y-33668390D01*
X98197857Y-33668390D02*
X98245476Y-33716009D01*
X98245476Y-33716009D02*
X98340714Y-33763628D01*
X98340714Y-33763628D02*
X98721666Y-33763628D01*
X97864523Y-33239819D02*
X97531190Y-34239819D01*
X97531190Y-34239819D02*
X97197857Y-33239819D01*
X96959761Y-33239819D02*
X96340714Y-33239819D01*
X96340714Y-33239819D02*
X96674047Y-33620771D01*
X96674047Y-33620771D02*
X96531190Y-33620771D01*
X96531190Y-33620771D02*
X96435952Y-33668390D01*
X96435952Y-33668390D02*
X96388333Y-33716009D01*
X96388333Y-33716009D02*
X96340714Y-33811247D01*
X96340714Y-33811247D02*
X96340714Y-34049342D01*
X96340714Y-34049342D02*
X96388333Y-34144580D01*
X96388333Y-34144580D02*
X96435952Y-34192200D01*
X96435952Y-34192200D02*
X96531190Y-34239819D01*
X96531190Y-34239819D02*
X96816904Y-34239819D01*
X96816904Y-34239819D02*
X96912142Y-34192200D01*
X96912142Y-34192200D02*
X96959761Y-34144580D01*
D11*
%TO.C,RV1*%
X97130000Y-54530000D02*
X97130000Y-57590000D01*
X97130000Y-61400000D02*
X97130000Y-66120000D01*
X98620000Y-66120000D02*
X97130000Y-66120000D01*
X101170000Y-66120000D02*
X100340000Y-66120000D01*
X101500000Y-59500000D02*
X102500000Y-59500000D01*
X102000000Y-60000000D02*
X102000000Y-59000000D01*
X103320000Y-66120000D02*
X102790000Y-66120000D01*
X106870000Y-54530000D02*
X97130000Y-54530000D01*
X106870000Y-54530000D02*
X106870000Y-57590000D01*
X106870000Y-66120000D02*
X105690000Y-66120000D01*
X106880000Y-61400000D02*
X106880000Y-66120000D01*
%TO.C,J8*%
X136420000Y-72970000D02*
X136420000Y-85730000D01*
X136420000Y-88330000D02*
X136420000Y-87000000D01*
X137750000Y-88330000D02*
X136420000Y-88330000D01*
X139080000Y-72970000D02*
X136420000Y-72970000D01*
X139080000Y-72970000D02*
X139080000Y-85730000D01*
X139080000Y-85730000D02*
X136420000Y-85730000D01*
D12*
%TO.C,J2*%
X82500000Y-91520000D02*
X82500000Y-102020000D01*
X82500000Y-91520000D02*
X85400000Y-91520000D01*
X82500000Y-102020000D02*
X85500000Y-102020000D01*
X88500000Y-102020000D02*
X91500000Y-102020000D01*
X88600000Y-91520000D02*
X91500000Y-91520000D01*
X91500000Y-91520000D02*
X91500000Y-102020000D01*
D11*
X85603000Y-100059999D02*
G75*
G02*
X88397000Y-100059999I1397000J2539999D01*
G01*
X88800000Y-97520000D02*
G75*
G02*
X85200000Y-97520000I-1800000J0D01*
G01*
X85200000Y-97520000D02*
G75*
G02*
X88800000Y-97520000I1800000J0D01*
G01*
D12*
%TO.C,J6*%
X97500000Y-121500000D02*
X97500000Y-132000000D01*
X97500000Y-121500000D02*
X100400000Y-121500000D01*
X97500000Y-132000000D02*
X100500000Y-132000000D01*
X103500000Y-132000000D02*
X106500000Y-132000000D01*
X103600000Y-121500000D02*
X106500000Y-121500000D01*
X106500000Y-121500000D02*
X106500000Y-132000000D01*
D11*
X100603000Y-130039999D02*
G75*
G02*
X103397000Y-130039999I1397000J2539999D01*
G01*
X103800000Y-127500000D02*
G75*
G02*
X100200000Y-127500000I-1800000J0D01*
G01*
X100200000Y-127500000D02*
G75*
G02*
X103800000Y-127500000I1800000J0D01*
G01*
D12*
%TO.C,J1*%
X97500000Y-91500000D02*
X97500000Y-102000000D01*
X97500000Y-91500000D02*
X100400000Y-91500000D01*
X97500000Y-102000000D02*
X100500000Y-102000000D01*
X103500000Y-102000000D02*
X106500000Y-102000000D01*
X103600000Y-91500000D02*
X106500000Y-91500000D01*
X106500000Y-91500000D02*
X106500000Y-102000000D01*
D11*
X100603000Y-100039999D02*
G75*
G02*
X103397000Y-100039999I1397000J2539999D01*
G01*
X103800000Y-97500000D02*
G75*
G02*
X100200000Y-97500000I-1800000J0D01*
G01*
X100200000Y-97500000D02*
G75*
G02*
X103800000Y-97500000I1800000J0D01*
G01*
%TO.C,RV4*%
X82130000Y-34530000D02*
X82130000Y-37590000D01*
X82130000Y-41400000D02*
X82130000Y-46120000D01*
X83620000Y-46120000D02*
X82130000Y-46120000D01*
X86170000Y-46120000D02*
X85340000Y-46120000D01*
X86500000Y-39500000D02*
X87500000Y-39500000D01*
X87000000Y-40000000D02*
X87000000Y-39000000D01*
X88320000Y-46120000D02*
X87790000Y-46120000D01*
X91870000Y-34530000D02*
X82130000Y-34530000D01*
X91870000Y-34530000D02*
X91870000Y-37590000D01*
X91870000Y-46120000D02*
X90690000Y-46120000D01*
X91880000Y-41400000D02*
X91880000Y-46120000D01*
%TO.C,RV2*%
X82130000Y-54530000D02*
X82130000Y-57590000D01*
X82130000Y-61400000D02*
X82130000Y-66120000D01*
X83620000Y-66120000D02*
X82130000Y-66120000D01*
X86170000Y-66120000D02*
X85340000Y-66120000D01*
X86500000Y-59500000D02*
X87500000Y-59500000D01*
X87000000Y-60000000D02*
X87000000Y-59000000D01*
X88320000Y-66120000D02*
X87790000Y-66120000D01*
X91870000Y-54530000D02*
X82130000Y-54530000D01*
X91870000Y-54530000D02*
X91870000Y-57590000D01*
X91870000Y-66120000D02*
X90690000Y-66120000D01*
X91880000Y-61400000D02*
X91880000Y-66120000D01*
D12*
%TO.C,J7*%
X82500000Y-121500000D02*
X82500000Y-132000000D01*
X82500000Y-121500000D02*
X85400000Y-121500000D01*
X82500000Y-132000000D02*
X85500000Y-132000000D01*
X88500000Y-132000000D02*
X91500000Y-132000000D01*
X88600000Y-121500000D02*
X91500000Y-121500000D01*
X91500000Y-121500000D02*
X91500000Y-132000000D01*
D11*
X85603000Y-130039999D02*
G75*
G02*
X88397000Y-130039999I1397000J2539999D01*
G01*
X88800000Y-127500000D02*
G75*
G02*
X85200000Y-127500000I-1800000J0D01*
G01*
X85200000Y-127500000D02*
G75*
G02*
X88800000Y-127500000I1800000J0D01*
G01*
D12*
%TO.C,J3*%
X97500000Y-106500000D02*
X97500000Y-117000000D01*
X97500000Y-106500000D02*
X100400000Y-106500000D01*
X97500000Y-117000000D02*
X100500000Y-117000000D01*
X103500000Y-117000000D02*
X106500000Y-117000000D01*
X103600000Y-106500000D02*
X106500000Y-106500000D01*
X106500000Y-106500000D02*
X106500000Y-117000000D01*
D11*
X100603000Y-115039999D02*
G75*
G02*
X103397000Y-115039999I1397000J2539999D01*
G01*
X103800000Y-112500000D02*
G75*
G02*
X100200000Y-112500000I-1800000J0D01*
G01*
X100200000Y-112500000D02*
G75*
G02*
X103800000Y-112500000I1800000J0D01*
G01*
D12*
%TO.C,J4*%
X82500000Y-106500000D02*
X82500000Y-117000000D01*
X82500000Y-106500000D02*
X85400000Y-106500000D01*
X82500000Y-117000000D02*
X85500000Y-117000000D01*
X88500000Y-117000000D02*
X91500000Y-117000000D01*
X88600000Y-106500000D02*
X91500000Y-106500000D01*
X91500000Y-106500000D02*
X91500000Y-117000000D01*
D11*
X85603000Y-115039999D02*
G75*
G02*
X88397000Y-115039999I1397000J2539999D01*
G01*
X88800000Y-112500000D02*
G75*
G02*
X85200000Y-112500000I-1800000J0D01*
G01*
X85200000Y-112500000D02*
G75*
G02*
X88800000Y-112500000I1800000J0D01*
G01*
%TO.C,J12*%
X111920000Y-72970000D02*
X111920000Y-85730000D01*
X111920000Y-88330000D02*
X111920000Y-87000000D01*
X113250000Y-88330000D02*
X111920000Y-88330000D01*
X114580000Y-72970000D02*
X111920000Y-72970000D01*
X114580000Y-72970000D02*
X114580000Y-85730000D01*
X114580000Y-85730000D02*
X111920000Y-85730000D01*
%TO.C,RV3*%
X97130000Y-34530000D02*
X97130000Y-37590000D01*
X97130000Y-41400000D02*
X97130000Y-46120000D01*
X98620000Y-46120000D02*
X97130000Y-46120000D01*
X101170000Y-46120000D02*
X100340000Y-46120000D01*
X101500000Y-39500000D02*
X102500000Y-39500000D01*
X102000000Y-40000000D02*
X102000000Y-39000000D01*
X103320000Y-46120000D02*
X102790000Y-46120000D01*
X106870000Y-34530000D02*
X97130000Y-34530000D01*
X106870000Y-34530000D02*
X106870000Y-37590000D01*
X106870000Y-46120000D02*
X105690000Y-46120000D01*
X106880000Y-41400000D02*
X106880000Y-46120000D01*
%TD*%
M02*
