M48
; DRILL file {KiCad 8.0.3} date 2024-07-04T10:47:57+0100
; FORMAT={-:-/ absolute / inch / decimal}
; #@! TF.CreationDate,2024-07-04T10:47:57+01:00
; #@! TF.GenerationSoftware,Kicad,Pcbnew,8.0.3
; #@! TF.FileFunction,NonPlated,1,2,NPTH
FMAT,2
INCH
; #@! TA.AperFunction,NonPlated,NPTH,ComponentDrill
T1C0.0197
%
G90
G05
T1
X4.3012Y-1.7421
X4.3012Y-1.7717
X4.3012Y-1.8012
X4.3012Y-2.3524
X4.3012Y-2.3819
X4.3012Y-2.4114
X4.3012Y-2.9626
X4.3012Y-2.9921
X4.3012Y-3.0217
X4.3012Y-3.5728
X4.3012Y-3.6024
X4.3012Y-3.6319
X4.3012Y-4.1831
X4.3012Y-4.2126
X4.3012Y-4.2421
X4.3012Y-4.7933
X4.3012Y-4.8228
X4.3012Y-4.8524
X4.3602Y-1.7421
X4.3602Y-1.7717
X4.3602Y-1.8012
X4.3602Y-2.3524
X4.3602Y-2.3819
X4.3602Y-2.4114
X4.3602Y-2.9626
X4.3602Y-2.9921
X4.3602Y-3.0217
X4.3602Y-3.5728
X4.3602Y-3.6024
X4.3602Y-3.6319
X4.3602Y-4.1831
X4.3602Y-4.2126
X4.3602Y-4.2421
X4.3602Y-4.7933
X4.3602Y-4.8228
X4.3602Y-4.8524
M30
