%TF.GenerationSoftware,KiCad,Pcbnew,7.0.2-0*%
%TF.CreationDate,2024-05-25T15:48:21+01:00*%
%TF.ProjectId,dual-vca-panel,6475616c-2d76-4636-912d-70616e656c2e,rev?*%
%TF.SameCoordinates,Original*%
%TF.FileFunction,Legend,Top*%
%TF.FilePolarity,Positive*%
%FSLAX46Y46*%
G04 Gerber Fmt 4.6, Leading zero omitted, Abs format (unit mm)*
G04 Created by KiCad (PCBNEW 7.0.2-0) date 2024-05-25 15:48:21*
%MOMM*%
%LPD*%
G01*
G04 APERTURE LIST*
%ADD10C,0.100000*%
%ADD11C,0.264582*%
G04 APERTURE END LIST*
D10*
X87850093Y-152122499D02*
X87919250Y-152127263D01*
X87987143Y-152135203D01*
X88053770Y-152146319D01*
X88119132Y-152160611D01*
X88183229Y-152178080D01*
X88246061Y-152198724D01*
X88307629Y-152222544D01*
X88367931Y-152249540D01*
X88426968Y-152279712D01*
X88484741Y-152313059D01*
X88541249Y-152349583D01*
X88596491Y-152389282D01*
X88650469Y-152432158D01*
X88703183Y-152478209D01*
X88754631Y-152527435D01*
X88804067Y-152578889D01*
X88850313Y-152631622D01*
X88893370Y-152685633D01*
X88933238Y-152740922D01*
X88969916Y-152797490D01*
X89003404Y-152855337D01*
X89033703Y-152914462D01*
X89060813Y-152974865D01*
X89084733Y-153036547D01*
X89105464Y-153099508D01*
X89123006Y-153163747D01*
X89137358Y-153229264D01*
X89148520Y-153296060D01*
X89156494Y-153364135D01*
X89161278Y-153433488D01*
X89162872Y-153504120D01*
X89161271Y-153575141D01*
X89156466Y-153644802D01*
X89148459Y-153713105D01*
X89137249Y-153780048D01*
X89122836Y-153845633D01*
X89105220Y-153909858D01*
X89084402Y-153972724D01*
X89060380Y-154034231D01*
X89033156Y-154094379D01*
X89002728Y-154153168D01*
X88969098Y-154210597D01*
X88932266Y-154266668D01*
X88892230Y-154321379D01*
X88848992Y-154374730D01*
X88802551Y-154426723D01*
X88752907Y-154477356D01*
X88700779Y-154525956D01*
X88647320Y-154571421D01*
X88592528Y-154613751D01*
X88536403Y-154652945D01*
X88478947Y-154689004D01*
X88420158Y-154721928D01*
X88360037Y-154751716D01*
X88298583Y-154778368D01*
X88235797Y-154801885D01*
X88171679Y-154822267D01*
X88106229Y-154839512D01*
X88039447Y-154853623D01*
X87971332Y-154864598D01*
X87901885Y-154872437D01*
X87831106Y-154877140D01*
X87758995Y-154878708D01*
X87695025Y-154877315D01*
X87631877Y-154873137D01*
X87569549Y-154866173D01*
X87508042Y-154856423D01*
X87447356Y-154843888D01*
X87387491Y-154828567D01*
X87328447Y-154810460D01*
X87270224Y-154789568D01*
X87212821Y-154765890D01*
X87156240Y-154739426D01*
X87100480Y-154710176D01*
X87045540Y-154678141D01*
X86991422Y-154643320D01*
X86938124Y-154605713D01*
X86885648Y-154565320D01*
X86833992Y-154522141D01*
X86779341Y-154471878D01*
X86728216Y-154419705D01*
X86680617Y-154365620D01*
X86636544Y-154309624D01*
X86595997Y-154251717D01*
X86558975Y-154191899D01*
X86525480Y-154130170D01*
X86495510Y-154066530D01*
X86469066Y-154000979D01*
X86446148Y-153933517D01*
X86426756Y-153864145D01*
X86410890Y-153792861D01*
X86398549Y-153719666D01*
X86389735Y-153644561D01*
X86384446Y-153567544D01*
X86382795Y-153493622D01*
X86787483Y-153493622D01*
X86788641Y-153548133D01*
X86792113Y-153601419D01*
X86797900Y-153653480D01*
X86806001Y-153704316D01*
X86816417Y-153753928D01*
X86829148Y-153802314D01*
X86844194Y-153849476D01*
X86861554Y-153895413D01*
X86881229Y-153940124D01*
X86903219Y-153983611D01*
X86927523Y-154025874D01*
X86954142Y-154066911D01*
X86983075Y-154106723D01*
X87014323Y-154145311D01*
X87047886Y-154182673D01*
X87083763Y-154218811D01*
X87120940Y-154253229D01*
X87158829Y-154285426D01*
X87197432Y-154315403D01*
X87236748Y-154343160D01*
X87276777Y-154368696D01*
X87317519Y-154392011D01*
X87358974Y-154413106D01*
X87401143Y-154431980D01*
X87444025Y-154448634D01*
X87487620Y-154463067D01*
X87531928Y-154475280D01*
X87576949Y-154485273D01*
X87622684Y-154493044D01*
X87669132Y-154498596D01*
X87716293Y-154501926D01*
X87764168Y-154503037D01*
X87815979Y-154501906D01*
X87866767Y-154498515D01*
X87916532Y-154492863D01*
X87965275Y-154484949D01*
X88012995Y-154474776D01*
X88059692Y-154462341D01*
X88105366Y-154447645D01*
X88150018Y-154430689D01*
X88193647Y-154411472D01*
X88236253Y-154389994D01*
X88277836Y-154366256D01*
X88318397Y-154340257D01*
X88357935Y-154311997D01*
X88396450Y-154281476D01*
X88433943Y-154248695D01*
X88470413Y-154213654D01*
X88505248Y-154176549D01*
X88537836Y-154138449D01*
X88568176Y-154099354D01*
X88596268Y-154059264D01*
X88622113Y-154018178D01*
X88645711Y-153976096D01*
X88667061Y-153933019D01*
X88686164Y-153888947D01*
X88703019Y-153843878D01*
X88717627Y-153797814D01*
X88729988Y-153750755D01*
X88740101Y-153702699D01*
X88747966Y-153653648D01*
X88753585Y-153603601D01*
X88756956Y-153552558D01*
X88758080Y-153500519D01*
X88756969Y-153447874D01*
X88753639Y-153396305D01*
X88748087Y-153345814D01*
X88740316Y-153296399D01*
X88730323Y-153248060D01*
X88718111Y-153200799D01*
X88703678Y-153154613D01*
X88687024Y-153109505D01*
X88668150Y-153065473D01*
X88647056Y-153022517D01*
X88623741Y-152980637D01*
X88598206Y-152939834D01*
X88570450Y-152900107D01*
X88540475Y-152861457D01*
X88508278Y-152823882D01*
X88473862Y-152787384D01*
X88438025Y-152752343D01*
X88401138Y-152719561D01*
X88363202Y-152689041D01*
X88324216Y-152660781D01*
X88284180Y-152634782D01*
X88243095Y-152611044D01*
X88200960Y-152589566D01*
X88157775Y-152570349D01*
X88113540Y-152553393D01*
X88068256Y-152538697D01*
X88021922Y-152526262D01*
X87974538Y-152516088D01*
X87926105Y-152508175D01*
X87876622Y-152502523D01*
X87826089Y-152499132D01*
X87774506Y-152498001D01*
X87723119Y-152499132D01*
X87672741Y-152502523D01*
X87623372Y-152508175D01*
X87575014Y-152516088D01*
X87527664Y-152526262D01*
X87481324Y-152538697D01*
X87435993Y-152553393D01*
X87391671Y-152570349D01*
X87348359Y-152589566D01*
X87306056Y-152611044D01*
X87264762Y-152634782D01*
X87224478Y-152660781D01*
X87185203Y-152689041D01*
X87146937Y-152719561D01*
X87109680Y-152752343D01*
X87073433Y-152787384D01*
X87038807Y-152823652D01*
X87006415Y-152860969D01*
X86976257Y-152899336D01*
X86948333Y-152938752D01*
X86922643Y-152979218D01*
X86899187Y-153020734D01*
X86877965Y-153063300D01*
X86858976Y-153106915D01*
X86842222Y-153151579D01*
X86827701Y-153197294D01*
X86815415Y-153244058D01*
X86805362Y-153291871D01*
X86797543Y-153340734D01*
X86791959Y-153390647D01*
X86788608Y-153441610D01*
X86787491Y-153493622D01*
X86787483Y-153493622D01*
X86382795Y-153493622D01*
X86382683Y-153488617D01*
X86384291Y-153419041D01*
X86389115Y-153350704D01*
X86397156Y-153283604D01*
X86408413Y-153217744D01*
X86422887Y-153153121D01*
X86440577Y-153089737D01*
X86461483Y-153027591D01*
X86485605Y-152966683D01*
X86512944Y-152907013D01*
X86543499Y-152848581D01*
X86577271Y-152791387D01*
X86614258Y-152735431D01*
X86654462Y-152680713D01*
X86697883Y-152627233D01*
X86744520Y-152574991D01*
X86794373Y-152523987D01*
X86846264Y-152475176D01*
X86899447Y-152429514D01*
X86953923Y-152387002D01*
X87009690Y-152347639D01*
X87066750Y-152311425D01*
X87125101Y-152278360D01*
X87184744Y-152248444D01*
X87245680Y-152221678D01*
X87307907Y-152198060D01*
X87371426Y-152177592D01*
X87436238Y-152160273D01*
X87502341Y-152146102D01*
X87569735Y-152135081D01*
X87638422Y-152127209D01*
X87708400Y-152122485D01*
X87779671Y-152120911D01*
X87850093Y-152122499D01*
G36*
X87850093Y-152122499D02*
G01*
X87919250Y-152127263D01*
X87987143Y-152135203D01*
X88053770Y-152146319D01*
X88119132Y-152160611D01*
X88183229Y-152178080D01*
X88246061Y-152198724D01*
X88307629Y-152222544D01*
X88367931Y-152249540D01*
X88426968Y-152279712D01*
X88484741Y-152313059D01*
X88541249Y-152349583D01*
X88596491Y-152389282D01*
X88650469Y-152432158D01*
X88703183Y-152478209D01*
X88754631Y-152527435D01*
X88804067Y-152578889D01*
X88850313Y-152631622D01*
X88893370Y-152685633D01*
X88933238Y-152740922D01*
X88969916Y-152797490D01*
X89003404Y-152855337D01*
X89033703Y-152914462D01*
X89060813Y-152974865D01*
X89084733Y-153036547D01*
X89105464Y-153099508D01*
X89123006Y-153163747D01*
X89137358Y-153229264D01*
X89148520Y-153296060D01*
X89156494Y-153364135D01*
X89161278Y-153433488D01*
X89162872Y-153504120D01*
X89161271Y-153575141D01*
X89156466Y-153644802D01*
X89148459Y-153713105D01*
X89137249Y-153780048D01*
X89122836Y-153845633D01*
X89105220Y-153909858D01*
X89084402Y-153972724D01*
X89060380Y-154034231D01*
X89033156Y-154094379D01*
X89002728Y-154153168D01*
X88969098Y-154210597D01*
X88932266Y-154266668D01*
X88892230Y-154321379D01*
X88848992Y-154374730D01*
X88802551Y-154426723D01*
X88752907Y-154477356D01*
X88700779Y-154525956D01*
X88647320Y-154571421D01*
X88592528Y-154613751D01*
X88536403Y-154652945D01*
X88478947Y-154689004D01*
X88420158Y-154721928D01*
X88360037Y-154751716D01*
X88298583Y-154778368D01*
X88235797Y-154801885D01*
X88171679Y-154822267D01*
X88106229Y-154839512D01*
X88039447Y-154853623D01*
X87971332Y-154864598D01*
X87901885Y-154872437D01*
X87831106Y-154877140D01*
X87758995Y-154878708D01*
X87695025Y-154877315D01*
X87631877Y-154873137D01*
X87569549Y-154866173D01*
X87508042Y-154856423D01*
X87447356Y-154843888D01*
X87387491Y-154828567D01*
X87328447Y-154810460D01*
X87270224Y-154789568D01*
X87212821Y-154765890D01*
X87156240Y-154739426D01*
X87100480Y-154710176D01*
X87045540Y-154678141D01*
X86991422Y-154643320D01*
X86938124Y-154605713D01*
X86885648Y-154565320D01*
X86833992Y-154522141D01*
X86779341Y-154471878D01*
X86728216Y-154419705D01*
X86680617Y-154365620D01*
X86636544Y-154309624D01*
X86595997Y-154251717D01*
X86558975Y-154191899D01*
X86525480Y-154130170D01*
X86495510Y-154066530D01*
X86469066Y-154000979D01*
X86446148Y-153933517D01*
X86426756Y-153864145D01*
X86410890Y-153792861D01*
X86398549Y-153719666D01*
X86389735Y-153644561D01*
X86384446Y-153567544D01*
X86382795Y-153493622D01*
X86787483Y-153493622D01*
X86788641Y-153548133D01*
X86792113Y-153601419D01*
X86797900Y-153653480D01*
X86806001Y-153704316D01*
X86816417Y-153753928D01*
X86829148Y-153802314D01*
X86844194Y-153849476D01*
X86861554Y-153895413D01*
X86881229Y-153940124D01*
X86903219Y-153983611D01*
X86927523Y-154025874D01*
X86954142Y-154066911D01*
X86983075Y-154106723D01*
X87014323Y-154145311D01*
X87047886Y-154182673D01*
X87083763Y-154218811D01*
X87120940Y-154253229D01*
X87158829Y-154285426D01*
X87197432Y-154315403D01*
X87236748Y-154343160D01*
X87276777Y-154368696D01*
X87317519Y-154392011D01*
X87358974Y-154413106D01*
X87401143Y-154431980D01*
X87444025Y-154448634D01*
X87487620Y-154463067D01*
X87531928Y-154475280D01*
X87576949Y-154485273D01*
X87622684Y-154493044D01*
X87669132Y-154498596D01*
X87716293Y-154501926D01*
X87764168Y-154503037D01*
X87815979Y-154501906D01*
X87866767Y-154498515D01*
X87916532Y-154492863D01*
X87965275Y-154484949D01*
X88012995Y-154474776D01*
X88059692Y-154462341D01*
X88105366Y-154447645D01*
X88150018Y-154430689D01*
X88193647Y-154411472D01*
X88236253Y-154389994D01*
X88277836Y-154366256D01*
X88318397Y-154340257D01*
X88357935Y-154311997D01*
X88396450Y-154281476D01*
X88433943Y-154248695D01*
X88470413Y-154213654D01*
X88505248Y-154176549D01*
X88537836Y-154138449D01*
X88568176Y-154099354D01*
X88596268Y-154059264D01*
X88622113Y-154018178D01*
X88645711Y-153976096D01*
X88667061Y-153933019D01*
X88686164Y-153888947D01*
X88703019Y-153843878D01*
X88717627Y-153797814D01*
X88729988Y-153750755D01*
X88740101Y-153702699D01*
X88747966Y-153653648D01*
X88753585Y-153603601D01*
X88756956Y-153552558D01*
X88758080Y-153500519D01*
X88756969Y-153447874D01*
X88753639Y-153396305D01*
X88748087Y-153345814D01*
X88740316Y-153296399D01*
X88730323Y-153248060D01*
X88718111Y-153200799D01*
X88703678Y-153154613D01*
X88687024Y-153109505D01*
X88668150Y-153065473D01*
X88647056Y-153022517D01*
X88623741Y-152980637D01*
X88598206Y-152939834D01*
X88570450Y-152900107D01*
X88540475Y-152861457D01*
X88508278Y-152823882D01*
X88473862Y-152787384D01*
X88438025Y-152752343D01*
X88401138Y-152719561D01*
X88363202Y-152689041D01*
X88324216Y-152660781D01*
X88284180Y-152634782D01*
X88243095Y-152611044D01*
X88200960Y-152589566D01*
X88157775Y-152570349D01*
X88113540Y-152553393D01*
X88068256Y-152538697D01*
X88021922Y-152526262D01*
X87974538Y-152516088D01*
X87926105Y-152508175D01*
X87876622Y-152502523D01*
X87826089Y-152499132D01*
X87774506Y-152498001D01*
X87723119Y-152499132D01*
X87672741Y-152502523D01*
X87623372Y-152508175D01*
X87575014Y-152516088D01*
X87527664Y-152526262D01*
X87481324Y-152538697D01*
X87435993Y-152553393D01*
X87391671Y-152570349D01*
X87348359Y-152589566D01*
X87306056Y-152611044D01*
X87264762Y-152634782D01*
X87224478Y-152660781D01*
X87185203Y-152689041D01*
X87146937Y-152719561D01*
X87109680Y-152752343D01*
X87073433Y-152787384D01*
X87038807Y-152823652D01*
X87006415Y-152860969D01*
X86976257Y-152899336D01*
X86948333Y-152938752D01*
X86922643Y-152979218D01*
X86899187Y-153020734D01*
X86877965Y-153063300D01*
X86858976Y-153106915D01*
X86842222Y-153151579D01*
X86827701Y-153197294D01*
X86815415Y-153244058D01*
X86805362Y-153291871D01*
X86797543Y-153340734D01*
X86791959Y-153390647D01*
X86788608Y-153441610D01*
X86787491Y-153493622D01*
X86787483Y-153493622D01*
X86382795Y-153493622D01*
X86382683Y-153488617D01*
X86384291Y-153419041D01*
X86389115Y-153350704D01*
X86397156Y-153283604D01*
X86408413Y-153217744D01*
X86422887Y-153153121D01*
X86440577Y-153089737D01*
X86461483Y-153027591D01*
X86485605Y-152966683D01*
X86512944Y-152907013D01*
X86543499Y-152848581D01*
X86577271Y-152791387D01*
X86614258Y-152735431D01*
X86654462Y-152680713D01*
X86697883Y-152627233D01*
X86744520Y-152574991D01*
X86794373Y-152523987D01*
X86846264Y-152475176D01*
X86899447Y-152429514D01*
X86953923Y-152387002D01*
X87009690Y-152347639D01*
X87066750Y-152311425D01*
X87125101Y-152278360D01*
X87184744Y-152248444D01*
X87245680Y-152221678D01*
X87307907Y-152198060D01*
X87371426Y-152177592D01*
X87436238Y-152160273D01*
X87502341Y-152146102D01*
X87569735Y-152135081D01*
X87638422Y-152127209D01*
X87708400Y-152122485D01*
X87779671Y-152120911D01*
X87850093Y-152122499D01*
G37*
D11*
X85880510Y-65035629D02*
X85823875Y-65208740D01*
D10*
X86939995Y-85128336D02*
X86978484Y-85129830D01*
X87016649Y-85132320D01*
X87054492Y-85135806D01*
X87092011Y-85140288D01*
X87129208Y-85145765D01*
X87166081Y-85152239D01*
X87202632Y-85159708D01*
X87238859Y-85168173D01*
X87274764Y-85177634D01*
X87310345Y-85188091D01*
X87345604Y-85199543D01*
X87380539Y-85211992D01*
X87415151Y-85225435D01*
X87449440Y-85239875D01*
X87483406Y-85255310D01*
X87515670Y-85271862D01*
X87547867Y-85289652D01*
X87579997Y-85308681D01*
X87612059Y-85328947D01*
X87644054Y-85350452D01*
X87675982Y-85373194D01*
X87707842Y-85397175D01*
X87739635Y-85422394D01*
X87771360Y-85448851D01*
X87803018Y-85476546D01*
X87834609Y-85505479D01*
X87866133Y-85535650D01*
X87897589Y-85567060D01*
X87928978Y-85599707D01*
X87960300Y-85633593D01*
X87991554Y-85668717D01*
X87705612Y-85942612D01*
X87664143Y-85889838D01*
X87621556Y-85840468D01*
X87577853Y-85794504D01*
X87533032Y-85751944D01*
X87487095Y-85712790D01*
X87440041Y-85677040D01*
X87391870Y-85644695D01*
X87342583Y-85615755D01*
X87292178Y-85590220D01*
X87240657Y-85568089D01*
X87188018Y-85549364D01*
X87134263Y-85534043D01*
X87079391Y-85522126D01*
X87023402Y-85513615D01*
X86966296Y-85508508D01*
X86908073Y-85506806D01*
X86855852Y-85507943D01*
X86804694Y-85511354D01*
X86754599Y-85517039D01*
X86705567Y-85524999D01*
X86657598Y-85535233D01*
X86610693Y-85547741D01*
X86564850Y-85562524D01*
X86520071Y-85579580D01*
X86476355Y-85598912D01*
X86433701Y-85620517D01*
X86392111Y-85644397D01*
X86351584Y-85670551D01*
X86312119Y-85698980D01*
X86273718Y-85729683D01*
X86236379Y-85762661D01*
X86200104Y-85797913D01*
X86165478Y-85834221D01*
X86133086Y-85871659D01*
X86102928Y-85910228D01*
X86075004Y-85949927D01*
X86049314Y-85990757D01*
X86025858Y-86032718D01*
X86004636Y-86075808D01*
X85985647Y-86120030D01*
X85968893Y-86165381D01*
X85954372Y-86211863D01*
X85942086Y-86259476D01*
X85932033Y-86308219D01*
X85924214Y-86358093D01*
X85918630Y-86409097D01*
X85915279Y-86461231D01*
X85914162Y-86514496D01*
X85915406Y-86569436D01*
X85919141Y-86623152D01*
X85925365Y-86675643D01*
X85934079Y-86726910D01*
X85945282Y-86776951D01*
X85958975Y-86825769D01*
X85975158Y-86873361D01*
X85993830Y-86919729D01*
X86014992Y-86964873D01*
X86038643Y-87008791D01*
X86064784Y-87051485D01*
X86093415Y-87092954D01*
X86124535Y-87133198D01*
X86158145Y-87172218D01*
X86194245Y-87210012D01*
X86232834Y-87246582D01*
X86270278Y-87278913D01*
X86308113Y-87309158D01*
X86346338Y-87337318D01*
X86384953Y-87363392D01*
X86423959Y-87387380D01*
X86463355Y-87409282D01*
X86503141Y-87429098D01*
X86543318Y-87446829D01*
X86583885Y-87462474D01*
X86624842Y-87476032D01*
X86666190Y-87487505D01*
X86707928Y-87496892D01*
X86750057Y-87504193D01*
X86792575Y-87509408D01*
X86835485Y-87512537D01*
X86878784Y-87513580D01*
X86915583Y-87512800D01*
X86951911Y-87510458D01*
X86987768Y-87506556D01*
X87023154Y-87501092D01*
X87058069Y-87494067D01*
X87092513Y-87485482D01*
X87126486Y-87475335D01*
X87159988Y-87463627D01*
X87193019Y-87450358D01*
X87225579Y-87435528D01*
X87257669Y-87419137D01*
X87289287Y-87401185D01*
X87320434Y-87381672D01*
X87351110Y-87360598D01*
X87381315Y-87337963D01*
X87411049Y-87313767D01*
X87439733Y-87288266D01*
X87466789Y-87262146D01*
X87492217Y-87235407D01*
X87516016Y-87208049D01*
X87538187Y-87180071D01*
X87558729Y-87151475D01*
X87577643Y-87122259D01*
X87594929Y-87092424D01*
X87610586Y-87061970D01*
X87624615Y-87030897D01*
X87637016Y-86999204D01*
X87647789Y-86966893D01*
X87656934Y-86933961D01*
X87664450Y-86900411D01*
X87670339Y-86866241D01*
X87674599Y-86831452D01*
X87011421Y-86831452D01*
X87011406Y-86454163D01*
X88110390Y-86454163D01*
X88110390Y-86542069D01*
X88109286Y-86615922D01*
X88105976Y-86687623D01*
X88100460Y-86757171D01*
X88092736Y-86824566D01*
X88082806Y-86889808D01*
X88070668Y-86952897D01*
X88056324Y-87013833D01*
X88039772Y-87072617D01*
X88030789Y-87099208D01*
X88021066Y-87125584D01*
X88010602Y-87151745D01*
X87999399Y-87177691D01*
X87987455Y-87203421D01*
X87974771Y-87228936D01*
X87961348Y-87254235D01*
X87947184Y-87279320D01*
X87932280Y-87304189D01*
X87916635Y-87328843D01*
X87900251Y-87353281D01*
X87883127Y-87377504D01*
X87865262Y-87401512D01*
X87846658Y-87425305D01*
X87827313Y-87448882D01*
X87807228Y-87472244D01*
X87760148Y-87522724D01*
X87711493Y-87569946D01*
X87661264Y-87613912D01*
X87609460Y-87654621D01*
X87556081Y-87692072D01*
X87501128Y-87726268D01*
X87444601Y-87757206D01*
X87386498Y-87784887D01*
X87326822Y-87809312D01*
X87265570Y-87830480D01*
X87202745Y-87848392D01*
X87138344Y-87863047D01*
X87072369Y-87874445D01*
X87004820Y-87882586D01*
X86935696Y-87887471D01*
X86864998Y-87889099D01*
X86795860Y-87887525D01*
X86727975Y-87882801D01*
X86661340Y-87874929D01*
X86595957Y-87863908D01*
X86531826Y-87849737D01*
X86468947Y-87832418D01*
X86407318Y-87811950D01*
X86346942Y-87788332D01*
X86287817Y-87761566D01*
X86229944Y-87731650D01*
X86173322Y-87698585D01*
X86117952Y-87662371D01*
X86063834Y-87623008D01*
X86010967Y-87580495D01*
X85959352Y-87534834D01*
X85908989Y-87486023D01*
X85860806Y-87434791D01*
X85815731Y-87382293D01*
X85773765Y-87328531D01*
X85734907Y-87273503D01*
X85699158Y-87217211D01*
X85666518Y-87159653D01*
X85636986Y-87100831D01*
X85610562Y-87040743D01*
X85587248Y-86979390D01*
X85567041Y-86916772D01*
X85549944Y-86852889D01*
X85535955Y-86787741D01*
X85525075Y-86721328D01*
X85517303Y-86653649D01*
X85512640Y-86584705D01*
X85511086Y-86514496D01*
X85512667Y-86442836D01*
X85517411Y-86372548D01*
X85525317Y-86303632D01*
X85536386Y-86236090D01*
X85550617Y-86169920D01*
X85568011Y-86105122D01*
X85588567Y-86041697D01*
X85612286Y-85979645D01*
X85639167Y-85918965D01*
X85669211Y-85859658D01*
X85702417Y-85801723D01*
X85738786Y-85745161D01*
X85778317Y-85689972D01*
X85821011Y-85636155D01*
X85866867Y-85583710D01*
X85915886Y-85532639D01*
X85967172Y-85483620D01*
X86019831Y-85437764D01*
X86073863Y-85395070D01*
X86129267Y-85355538D01*
X86186044Y-85319170D01*
X86244193Y-85285963D01*
X86303715Y-85255920D01*
X86364610Y-85229038D01*
X86426877Y-85205320D01*
X86490517Y-85184763D01*
X86555530Y-85167370D01*
X86621915Y-85153138D01*
X86689673Y-85142070D01*
X86758804Y-85134163D01*
X86829308Y-85129419D01*
X86901184Y-85127838D01*
X86939995Y-85128336D01*
G36*
X86939995Y-85128336D02*
G01*
X86978484Y-85129830D01*
X87016649Y-85132320D01*
X87054492Y-85135806D01*
X87092011Y-85140288D01*
X87129208Y-85145765D01*
X87166081Y-85152239D01*
X87202632Y-85159708D01*
X87238859Y-85168173D01*
X87274764Y-85177634D01*
X87310345Y-85188091D01*
X87345604Y-85199543D01*
X87380539Y-85211992D01*
X87415151Y-85225435D01*
X87449440Y-85239875D01*
X87483406Y-85255310D01*
X87515670Y-85271862D01*
X87547867Y-85289652D01*
X87579997Y-85308681D01*
X87612059Y-85328947D01*
X87644054Y-85350452D01*
X87675982Y-85373194D01*
X87707842Y-85397175D01*
X87739635Y-85422394D01*
X87771360Y-85448851D01*
X87803018Y-85476546D01*
X87834609Y-85505479D01*
X87866133Y-85535650D01*
X87897589Y-85567060D01*
X87928978Y-85599707D01*
X87960300Y-85633593D01*
X87991554Y-85668717D01*
X87705612Y-85942612D01*
X87664143Y-85889838D01*
X87621556Y-85840468D01*
X87577853Y-85794504D01*
X87533032Y-85751944D01*
X87487095Y-85712790D01*
X87440041Y-85677040D01*
X87391870Y-85644695D01*
X87342583Y-85615755D01*
X87292178Y-85590220D01*
X87240657Y-85568089D01*
X87188018Y-85549364D01*
X87134263Y-85534043D01*
X87079391Y-85522126D01*
X87023402Y-85513615D01*
X86966296Y-85508508D01*
X86908073Y-85506806D01*
X86855852Y-85507943D01*
X86804694Y-85511354D01*
X86754599Y-85517039D01*
X86705567Y-85524999D01*
X86657598Y-85535233D01*
X86610693Y-85547741D01*
X86564850Y-85562524D01*
X86520071Y-85579580D01*
X86476355Y-85598912D01*
X86433701Y-85620517D01*
X86392111Y-85644397D01*
X86351584Y-85670551D01*
X86312119Y-85698980D01*
X86273718Y-85729683D01*
X86236379Y-85762661D01*
X86200104Y-85797913D01*
X86165478Y-85834221D01*
X86133086Y-85871659D01*
X86102928Y-85910228D01*
X86075004Y-85949927D01*
X86049314Y-85990757D01*
X86025858Y-86032718D01*
X86004636Y-86075808D01*
X85985647Y-86120030D01*
X85968893Y-86165381D01*
X85954372Y-86211863D01*
X85942086Y-86259476D01*
X85932033Y-86308219D01*
X85924214Y-86358093D01*
X85918630Y-86409097D01*
X85915279Y-86461231D01*
X85914162Y-86514496D01*
X85915406Y-86569436D01*
X85919141Y-86623152D01*
X85925365Y-86675643D01*
X85934079Y-86726910D01*
X85945282Y-86776951D01*
X85958975Y-86825769D01*
X85975158Y-86873361D01*
X85993830Y-86919729D01*
X86014992Y-86964873D01*
X86038643Y-87008791D01*
X86064784Y-87051485D01*
X86093415Y-87092954D01*
X86124535Y-87133198D01*
X86158145Y-87172218D01*
X86194245Y-87210012D01*
X86232834Y-87246582D01*
X86270278Y-87278913D01*
X86308113Y-87309158D01*
X86346338Y-87337318D01*
X86384953Y-87363392D01*
X86423959Y-87387380D01*
X86463355Y-87409282D01*
X86503141Y-87429098D01*
X86543318Y-87446829D01*
X86583885Y-87462474D01*
X86624842Y-87476032D01*
X86666190Y-87487505D01*
X86707928Y-87496892D01*
X86750057Y-87504193D01*
X86792575Y-87509408D01*
X86835485Y-87512537D01*
X86878784Y-87513580D01*
X86915583Y-87512800D01*
X86951911Y-87510458D01*
X86987768Y-87506556D01*
X87023154Y-87501092D01*
X87058069Y-87494067D01*
X87092513Y-87485482D01*
X87126486Y-87475335D01*
X87159988Y-87463627D01*
X87193019Y-87450358D01*
X87225579Y-87435528D01*
X87257669Y-87419137D01*
X87289287Y-87401185D01*
X87320434Y-87381672D01*
X87351110Y-87360598D01*
X87381315Y-87337963D01*
X87411049Y-87313767D01*
X87439733Y-87288266D01*
X87466789Y-87262146D01*
X87492217Y-87235407D01*
X87516016Y-87208049D01*
X87538187Y-87180071D01*
X87558729Y-87151475D01*
X87577643Y-87122259D01*
X87594929Y-87092424D01*
X87610586Y-87061970D01*
X87624615Y-87030897D01*
X87637016Y-86999204D01*
X87647789Y-86966893D01*
X87656934Y-86933961D01*
X87664450Y-86900411D01*
X87670339Y-86866241D01*
X87674599Y-86831452D01*
X87011421Y-86831452D01*
X87011406Y-86454163D01*
X88110390Y-86454163D01*
X88110390Y-86542069D01*
X88109286Y-86615922D01*
X88105976Y-86687623D01*
X88100460Y-86757171D01*
X88092736Y-86824566D01*
X88082806Y-86889808D01*
X88070668Y-86952897D01*
X88056324Y-87013833D01*
X88039772Y-87072617D01*
X88030789Y-87099208D01*
X88021066Y-87125584D01*
X88010602Y-87151745D01*
X87999399Y-87177691D01*
X87987455Y-87203421D01*
X87974771Y-87228936D01*
X87961348Y-87254235D01*
X87947184Y-87279320D01*
X87932280Y-87304189D01*
X87916635Y-87328843D01*
X87900251Y-87353281D01*
X87883127Y-87377504D01*
X87865262Y-87401512D01*
X87846658Y-87425305D01*
X87827313Y-87448882D01*
X87807228Y-87472244D01*
X87760148Y-87522724D01*
X87711493Y-87569946D01*
X87661264Y-87613912D01*
X87609460Y-87654621D01*
X87556081Y-87692072D01*
X87501128Y-87726268D01*
X87444601Y-87757206D01*
X87386498Y-87784887D01*
X87326822Y-87809312D01*
X87265570Y-87830480D01*
X87202745Y-87848392D01*
X87138344Y-87863047D01*
X87072369Y-87874445D01*
X87004820Y-87882586D01*
X86935696Y-87887471D01*
X86864998Y-87889099D01*
X86795860Y-87887525D01*
X86727975Y-87882801D01*
X86661340Y-87874929D01*
X86595957Y-87863908D01*
X86531826Y-87849737D01*
X86468947Y-87832418D01*
X86407318Y-87811950D01*
X86346942Y-87788332D01*
X86287817Y-87761566D01*
X86229944Y-87731650D01*
X86173322Y-87698585D01*
X86117952Y-87662371D01*
X86063834Y-87623008D01*
X86010967Y-87580495D01*
X85959352Y-87534834D01*
X85908989Y-87486023D01*
X85860806Y-87434791D01*
X85815731Y-87382293D01*
X85773765Y-87328531D01*
X85734907Y-87273503D01*
X85699158Y-87217211D01*
X85666518Y-87159653D01*
X85636986Y-87100831D01*
X85610562Y-87040743D01*
X85587248Y-86979390D01*
X85567041Y-86916772D01*
X85549944Y-86852889D01*
X85535955Y-86787741D01*
X85525075Y-86721328D01*
X85517303Y-86653649D01*
X85512640Y-86584705D01*
X85511086Y-86514496D01*
X85512667Y-86442836D01*
X85517411Y-86372548D01*
X85525317Y-86303632D01*
X85536386Y-86236090D01*
X85550617Y-86169920D01*
X85568011Y-86105122D01*
X85588567Y-86041697D01*
X85612286Y-85979645D01*
X85639167Y-85918965D01*
X85669211Y-85859658D01*
X85702417Y-85801723D01*
X85738786Y-85745161D01*
X85778317Y-85689972D01*
X85821011Y-85636155D01*
X85866867Y-85583710D01*
X85915886Y-85532639D01*
X85967172Y-85483620D01*
X86019831Y-85437764D01*
X86073863Y-85395070D01*
X86129267Y-85355538D01*
X86186044Y-85319170D01*
X86244193Y-85285963D01*
X86303715Y-85255920D01*
X86364610Y-85229038D01*
X86426877Y-85205320D01*
X86490517Y-85184763D01*
X86555530Y-85167370D01*
X86621915Y-85153138D01*
X86689673Y-85142070D01*
X86758804Y-85134163D01*
X86829308Y-85129419D01*
X86901184Y-85127838D01*
X86939995Y-85128336D01*
G37*
X90775162Y-87839096D02*
X90335915Y-87839096D01*
X90056862Y-87193146D01*
X88918259Y-87193146D01*
X88621979Y-87839096D01*
X88189621Y-87839096D01*
X88665987Y-86815903D01*
X89085350Y-86815903D01*
X89893219Y-86815903D01*
X89498756Y-85911560D01*
X89085350Y-86815903D01*
X88665987Y-86815903D01*
X89505646Y-85012390D01*
X90775162Y-87839096D01*
G36*
X90775162Y-87839096D02*
G01*
X90335915Y-87839096D01*
X90056862Y-87193146D01*
X88918259Y-87193146D01*
X88621979Y-87839096D01*
X88189621Y-87839096D01*
X88665987Y-86815903D01*
X89085350Y-86815903D01*
X89893219Y-86815903D01*
X89498756Y-85911560D01*
X89085350Y-86815903D01*
X88665987Y-86815903D01*
X89505646Y-85012390D01*
X90775162Y-87839096D01*
G37*
D11*
X85681323Y-65518341D02*
X85597236Y-65655747D01*
D10*
X89120574Y-121045072D02*
X89165078Y-121047353D01*
X89209393Y-121051155D01*
X89253520Y-121056477D01*
X89297459Y-121063320D01*
X89341209Y-121071684D01*
X89384770Y-121081568D01*
X89428144Y-121092974D01*
X89471328Y-121105900D01*
X89514325Y-121120347D01*
X89557133Y-121136315D01*
X89599753Y-121153804D01*
X89642184Y-121172813D01*
X89684427Y-121193344D01*
X89726482Y-121215395D01*
X89768341Y-121238964D01*
X89768341Y-121714340D01*
X89724752Y-121679088D01*
X89680975Y-121646111D01*
X89637010Y-121615407D01*
X89592856Y-121586979D01*
X89548514Y-121560825D01*
X89503983Y-121536945D01*
X89459264Y-121515339D01*
X89414357Y-121496008D01*
X89369262Y-121478951D01*
X89323978Y-121464169D01*
X89278505Y-121451661D01*
X89232844Y-121441427D01*
X89186995Y-121433467D01*
X89140958Y-121427781D01*
X89094732Y-121424370D01*
X89048317Y-121423233D01*
X88997576Y-121424384D01*
X88947845Y-121427836D01*
X88899123Y-121433589D01*
X88851410Y-121441644D01*
X88804706Y-121451999D01*
X88759012Y-121464656D01*
X88714327Y-121479615D01*
X88670650Y-121496874D01*
X88627984Y-121516435D01*
X88586326Y-121538296D01*
X88545678Y-121562459D01*
X88506039Y-121588923D01*
X88467409Y-121617688D01*
X88429788Y-121648754D01*
X88393177Y-121682121D01*
X88357574Y-121717789D01*
X88323366Y-121754904D01*
X88291364Y-121793042D01*
X88261570Y-121832203D01*
X88233982Y-121872387D01*
X88208602Y-121913594D01*
X88185429Y-121955823D01*
X88164463Y-121999075D01*
X88145703Y-122043350D01*
X88129151Y-122088648D01*
X88114806Y-122134969D01*
X88102668Y-122182312D01*
X88092736Y-122230679D01*
X88085012Y-122280068D01*
X88079495Y-122330480D01*
X88076184Y-122381914D01*
X88075081Y-122434372D01*
X88076184Y-122486180D01*
X88079495Y-122536966D01*
X88085012Y-122586730D01*
X88092736Y-122635470D01*
X88102668Y-122683189D01*
X88114806Y-122729885D01*
X88129151Y-122775559D01*
X88145703Y-122820210D01*
X88164463Y-122863838D01*
X88185429Y-122906444D01*
X88208602Y-122948028D01*
X88233982Y-122988589D01*
X88261570Y-123028128D01*
X88291364Y-123066645D01*
X88323366Y-123104138D01*
X88357574Y-123140610D01*
X88393385Y-123175444D01*
X88430190Y-123208030D01*
X88467992Y-123238369D01*
X88506790Y-123266461D01*
X88546583Y-123292305D01*
X88587373Y-123315902D01*
X88629158Y-123337252D01*
X88671939Y-123356354D01*
X88715716Y-123373209D01*
X88760489Y-123387817D01*
X88806258Y-123400177D01*
X88853022Y-123410290D01*
X88900783Y-123418156D01*
X88949540Y-123423774D01*
X88999293Y-123427145D01*
X89050041Y-123428269D01*
X89076277Y-123427999D01*
X89102014Y-123427192D01*
X89127254Y-123425847D01*
X89151995Y-123423963D01*
X89176239Y-123421541D01*
X89199984Y-123418580D01*
X89223232Y-123415082D01*
X89245981Y-123411045D01*
X89268233Y-123406470D01*
X89289986Y-123401357D01*
X89311242Y-123395706D01*
X89331999Y-123389516D01*
X89352259Y-123382788D01*
X89372020Y-123375522D01*
X89391284Y-123367718D01*
X89410049Y-123359375D01*
X89430801Y-123350377D01*
X89451713Y-123340627D01*
X89472787Y-123330127D01*
X89494022Y-123318876D01*
X89515419Y-123306875D01*
X89536978Y-123294124D01*
X89558699Y-123280624D01*
X89580582Y-123266373D01*
X89603109Y-123251349D01*
X89625906Y-123235574D01*
X89648972Y-123219047D01*
X89672307Y-123201769D01*
X89695911Y-123183739D01*
X89719785Y-123164957D01*
X89743928Y-123145424D01*
X89768341Y-123125137D01*
X89768341Y-123609161D01*
X89725144Y-123632734D01*
X89681677Y-123654786D01*
X89637941Y-123675316D01*
X89593936Y-123694326D01*
X89549661Y-123711815D01*
X89505118Y-123727782D01*
X89460305Y-123742229D01*
X89415222Y-123755156D01*
X89369870Y-123766561D01*
X89324250Y-123776446D01*
X89278359Y-123784809D01*
X89232200Y-123791653D01*
X89185771Y-123796975D01*
X89139073Y-123800777D01*
X89092105Y-123803058D01*
X89044868Y-123803818D01*
X88974252Y-123802264D01*
X88904940Y-123797601D01*
X88836933Y-123789829D01*
X88770232Y-123778950D01*
X88704836Y-123764961D01*
X88640745Y-123747864D01*
X88577960Y-123727658D01*
X88516479Y-123704344D01*
X88456305Y-123677921D01*
X88397435Y-123648389D01*
X88339871Y-123615749D01*
X88283612Y-123579999D01*
X88228659Y-123541141D01*
X88175011Y-123499174D01*
X88122669Y-123454099D01*
X88071632Y-123405914D01*
X88023031Y-123355100D01*
X87977565Y-123302994D01*
X87935234Y-123249596D01*
X87896040Y-123194906D01*
X87859981Y-123138923D01*
X87827057Y-123081649D01*
X87797270Y-123023083D01*
X87770617Y-122963225D01*
X87747101Y-122902074D01*
X87726720Y-122839632D01*
X87709474Y-122775898D01*
X87695365Y-122710873D01*
X87684390Y-122644555D01*
X87676551Y-122576945D01*
X87671848Y-122508044D01*
X87670280Y-122437851D01*
X87671593Y-122374764D01*
X87675529Y-122312538D01*
X87682090Y-122251172D01*
X87691275Y-122190668D01*
X87703084Y-122131024D01*
X87717517Y-122072242D01*
X87734575Y-122014320D01*
X87754256Y-121957260D01*
X87776562Y-121901061D01*
X87801492Y-121845723D01*
X87829047Y-121791247D01*
X87859225Y-121737631D01*
X87892027Y-121684877D01*
X87927454Y-121632985D01*
X87965505Y-121581954D01*
X88006180Y-121531784D01*
X88058806Y-121472754D01*
X88113329Y-121417533D01*
X88169750Y-121366120D01*
X88228068Y-121318515D01*
X88288283Y-121274719D01*
X88350396Y-121234731D01*
X88414407Y-121198551D01*
X88480314Y-121166180D01*
X88548119Y-121137617D01*
X88617822Y-121112862D01*
X88689422Y-121091916D01*
X88762919Y-121074779D01*
X88838314Y-121061449D01*
X88915606Y-121051928D01*
X88994795Y-121046216D01*
X89075882Y-121044312D01*
X89120574Y-121045072D01*
G36*
X89120574Y-121045072D02*
G01*
X89165078Y-121047353D01*
X89209393Y-121051155D01*
X89253520Y-121056477D01*
X89297459Y-121063320D01*
X89341209Y-121071684D01*
X89384770Y-121081568D01*
X89428144Y-121092974D01*
X89471328Y-121105900D01*
X89514325Y-121120347D01*
X89557133Y-121136315D01*
X89599753Y-121153804D01*
X89642184Y-121172813D01*
X89684427Y-121193344D01*
X89726482Y-121215395D01*
X89768341Y-121238964D01*
X89768341Y-121714340D01*
X89724752Y-121679088D01*
X89680975Y-121646111D01*
X89637010Y-121615407D01*
X89592856Y-121586979D01*
X89548514Y-121560825D01*
X89503983Y-121536945D01*
X89459264Y-121515339D01*
X89414357Y-121496008D01*
X89369262Y-121478951D01*
X89323978Y-121464169D01*
X89278505Y-121451661D01*
X89232844Y-121441427D01*
X89186995Y-121433467D01*
X89140958Y-121427781D01*
X89094732Y-121424370D01*
X89048317Y-121423233D01*
X88997576Y-121424384D01*
X88947845Y-121427836D01*
X88899123Y-121433589D01*
X88851410Y-121441644D01*
X88804706Y-121451999D01*
X88759012Y-121464656D01*
X88714327Y-121479615D01*
X88670650Y-121496874D01*
X88627984Y-121516435D01*
X88586326Y-121538296D01*
X88545678Y-121562459D01*
X88506039Y-121588923D01*
X88467409Y-121617688D01*
X88429788Y-121648754D01*
X88393177Y-121682121D01*
X88357574Y-121717789D01*
X88323366Y-121754904D01*
X88291364Y-121793042D01*
X88261570Y-121832203D01*
X88233982Y-121872387D01*
X88208602Y-121913594D01*
X88185429Y-121955823D01*
X88164463Y-121999075D01*
X88145703Y-122043350D01*
X88129151Y-122088648D01*
X88114806Y-122134969D01*
X88102668Y-122182312D01*
X88092736Y-122230679D01*
X88085012Y-122280068D01*
X88079495Y-122330480D01*
X88076184Y-122381914D01*
X88075081Y-122434372D01*
X88076184Y-122486180D01*
X88079495Y-122536966D01*
X88085012Y-122586730D01*
X88092736Y-122635470D01*
X88102668Y-122683189D01*
X88114806Y-122729885D01*
X88129151Y-122775559D01*
X88145703Y-122820210D01*
X88164463Y-122863838D01*
X88185429Y-122906444D01*
X88208602Y-122948028D01*
X88233982Y-122988589D01*
X88261570Y-123028128D01*
X88291364Y-123066645D01*
X88323366Y-123104138D01*
X88357574Y-123140610D01*
X88393385Y-123175444D01*
X88430190Y-123208030D01*
X88467992Y-123238369D01*
X88506790Y-123266461D01*
X88546583Y-123292305D01*
X88587373Y-123315902D01*
X88629158Y-123337252D01*
X88671939Y-123356354D01*
X88715716Y-123373209D01*
X88760489Y-123387817D01*
X88806258Y-123400177D01*
X88853022Y-123410290D01*
X88900783Y-123418156D01*
X88949540Y-123423774D01*
X88999293Y-123427145D01*
X89050041Y-123428269D01*
X89076277Y-123427999D01*
X89102014Y-123427192D01*
X89127254Y-123425847D01*
X89151995Y-123423963D01*
X89176239Y-123421541D01*
X89199984Y-123418580D01*
X89223232Y-123415082D01*
X89245981Y-123411045D01*
X89268233Y-123406470D01*
X89289986Y-123401357D01*
X89311242Y-123395706D01*
X89331999Y-123389516D01*
X89352259Y-123382788D01*
X89372020Y-123375522D01*
X89391284Y-123367718D01*
X89410049Y-123359375D01*
X89430801Y-123350377D01*
X89451713Y-123340627D01*
X89472787Y-123330127D01*
X89494022Y-123318876D01*
X89515419Y-123306875D01*
X89536978Y-123294124D01*
X89558699Y-123280624D01*
X89580582Y-123266373D01*
X89603109Y-123251349D01*
X89625906Y-123235574D01*
X89648972Y-123219047D01*
X89672307Y-123201769D01*
X89695911Y-123183739D01*
X89719785Y-123164957D01*
X89743928Y-123145424D01*
X89768341Y-123125137D01*
X89768341Y-123609161D01*
X89725144Y-123632734D01*
X89681677Y-123654786D01*
X89637941Y-123675316D01*
X89593936Y-123694326D01*
X89549661Y-123711815D01*
X89505118Y-123727782D01*
X89460305Y-123742229D01*
X89415222Y-123755156D01*
X89369870Y-123766561D01*
X89324250Y-123776446D01*
X89278359Y-123784809D01*
X89232200Y-123791653D01*
X89185771Y-123796975D01*
X89139073Y-123800777D01*
X89092105Y-123803058D01*
X89044868Y-123803818D01*
X88974252Y-123802264D01*
X88904940Y-123797601D01*
X88836933Y-123789829D01*
X88770232Y-123778950D01*
X88704836Y-123764961D01*
X88640745Y-123747864D01*
X88577960Y-123727658D01*
X88516479Y-123704344D01*
X88456305Y-123677921D01*
X88397435Y-123648389D01*
X88339871Y-123615749D01*
X88283612Y-123579999D01*
X88228659Y-123541141D01*
X88175011Y-123499174D01*
X88122669Y-123454099D01*
X88071632Y-123405914D01*
X88023031Y-123355100D01*
X87977565Y-123302994D01*
X87935234Y-123249596D01*
X87896040Y-123194906D01*
X87859981Y-123138923D01*
X87827057Y-123081649D01*
X87797270Y-123023083D01*
X87770617Y-122963225D01*
X87747101Y-122902074D01*
X87726720Y-122839632D01*
X87709474Y-122775898D01*
X87695365Y-122710873D01*
X87684390Y-122644555D01*
X87676551Y-122576945D01*
X87671848Y-122508044D01*
X87670280Y-122437851D01*
X87671593Y-122374764D01*
X87675529Y-122312538D01*
X87682090Y-122251172D01*
X87691275Y-122190668D01*
X87703084Y-122131024D01*
X87717517Y-122072242D01*
X87734575Y-122014320D01*
X87754256Y-121957260D01*
X87776562Y-121901061D01*
X87801492Y-121845723D01*
X87829047Y-121791247D01*
X87859225Y-121737631D01*
X87892027Y-121684877D01*
X87927454Y-121632985D01*
X87965505Y-121581954D01*
X88006180Y-121531784D01*
X88058806Y-121472754D01*
X88113329Y-121417533D01*
X88169750Y-121366120D01*
X88228068Y-121318515D01*
X88288283Y-121274719D01*
X88350396Y-121234731D01*
X88414407Y-121198551D01*
X88480314Y-121166180D01*
X88548119Y-121137617D01*
X88617822Y-121112862D01*
X88689422Y-121091916D01*
X88762919Y-121074779D01*
X88838314Y-121061449D01*
X88915606Y-121051928D01*
X88994795Y-121046216D01*
X89075882Y-121044312D01*
X89120574Y-121045072D01*
G37*
D11*
X85959920Y-64650498D02*
X85926163Y-64849701D01*
X85085299Y-66187134D02*
X84971019Y-66265488D01*
X85597236Y-65655747D02*
X85505828Y-65782166D01*
X83718751Y-66693955D02*
X83595483Y-66705551D01*
D10*
X93617371Y-152547958D02*
X93007591Y-152547958D01*
X93007591Y-154830322D01*
X92606239Y-154830322D01*
X92606239Y-152547958D01*
X91994736Y-152547958D01*
X91994736Y-152170715D01*
X93617371Y-152170715D01*
X93617371Y-152547958D01*
G36*
X93617371Y-152547958D02*
G01*
X93007591Y-152547958D01*
X93007591Y-154830322D01*
X92606239Y-154830322D01*
X92606239Y-152547958D01*
X91994736Y-152547958D01*
X91994736Y-152170715D01*
X93617371Y-152170715D01*
X93617371Y-152547958D01*
G37*
X94087608Y-87027771D02*
X94087608Y-85179474D01*
X94488960Y-85179474D01*
X94488960Y-88001007D01*
X92549377Y-85977020D01*
X92549377Y-87839096D01*
X92148026Y-87839096D01*
X92148026Y-84998612D01*
X94087608Y-87027771D01*
G36*
X94087608Y-87027771D02*
G01*
X94087608Y-85179474D01*
X94488960Y-85179474D01*
X94488960Y-88001007D01*
X92549377Y-85977020D01*
X92549377Y-87839096D01*
X92148026Y-87839096D01*
X92148026Y-84998612D01*
X94087608Y-87027771D01*
G37*
X81967087Y-46547440D02*
X81967699Y-46606420D01*
X81969536Y-46663385D01*
X81972598Y-46718333D01*
X81976884Y-46771265D01*
X81982395Y-46822181D01*
X81989131Y-46871081D01*
X81997091Y-46917965D01*
X82006276Y-46962834D01*
X82016686Y-47005686D01*
X82028320Y-47046522D01*
X82041178Y-47085343D01*
X82055262Y-47122147D01*
X82070570Y-47156936D01*
X82087102Y-47189709D01*
X82104859Y-47220466D01*
X82123840Y-47249207D01*
X82153826Y-47288047D01*
X82185299Y-47324381D01*
X82218261Y-47358209D01*
X82252711Y-47389531D01*
X82288649Y-47418348D01*
X82326076Y-47444659D01*
X82364991Y-47468463D01*
X82405394Y-47489763D01*
X82447285Y-47508556D01*
X82490665Y-47524843D01*
X82535533Y-47538625D01*
X82581889Y-47549901D01*
X82629733Y-47558671D01*
X82679066Y-47564935D01*
X82729887Y-47568694D01*
X82782196Y-47569946D01*
X82834799Y-47568694D01*
X82885895Y-47564935D01*
X82935483Y-47558671D01*
X82983564Y-47549901D01*
X83030137Y-47538625D01*
X83075203Y-47524843D01*
X83118762Y-47508556D01*
X83160813Y-47489763D01*
X83201357Y-47468463D01*
X83240394Y-47444659D01*
X83277924Y-47418348D01*
X83313946Y-47389531D01*
X83348461Y-47358209D01*
X83381469Y-47324381D01*
X83412969Y-47288047D01*
X83442963Y-47249207D01*
X83461944Y-47221313D01*
X83479701Y-47191291D01*
X83496233Y-47159139D01*
X83511541Y-47124859D01*
X83525625Y-47088450D01*
X83538483Y-47049912D01*
X83550117Y-47009246D01*
X83560527Y-46966450D01*
X83569712Y-46921525D01*
X83577672Y-46874472D01*
X83584408Y-46825289D01*
X83589919Y-46773977D01*
X83594205Y-46720537D01*
X83597267Y-46664967D01*
X83599104Y-46607268D01*
X83599716Y-46547440D01*
X83599716Y-44304680D01*
X84161613Y-44304680D01*
X84161613Y-46701775D01*
X84160182Y-46774517D01*
X84155886Y-46845640D01*
X84148727Y-46915142D01*
X84138704Y-46983023D01*
X84125817Y-47049285D01*
X84110066Y-47113926D01*
X84091452Y-47176947D01*
X84069974Y-47238348D01*
X84045632Y-47298129D01*
X84018426Y-47356289D01*
X83988357Y-47412829D01*
X83955423Y-47467749D01*
X83919626Y-47521049D01*
X83880965Y-47572728D01*
X83839440Y-47622788D01*
X83795052Y-47671227D01*
X83742770Y-47722624D01*
X83689018Y-47770704D01*
X83633798Y-47815469D01*
X83577107Y-47856919D01*
X83518947Y-47895052D01*
X83459318Y-47929869D01*
X83398219Y-47961370D01*
X83335650Y-47989556D01*
X83271612Y-48014425D01*
X83206105Y-48035979D01*
X83139127Y-48054216D01*
X83070680Y-48069138D01*
X83000764Y-48080744D01*
X82929377Y-48089033D01*
X82856522Y-48094007D01*
X82782196Y-48095665D01*
X82707880Y-48094007D01*
X82635052Y-48089033D01*
X82563713Y-48080744D01*
X82493862Y-48069138D01*
X82425500Y-48054216D01*
X82358626Y-48035979D01*
X82293240Y-48014425D01*
X82229343Y-47989556D01*
X82166935Y-47961370D01*
X82106015Y-47929869D01*
X82046583Y-47895052D01*
X81988640Y-47856919D01*
X81932185Y-47815469D01*
X81877219Y-47770704D01*
X81823741Y-47722624D01*
X81771751Y-47671227D01*
X81727364Y-47622788D01*
X81685840Y-47572728D01*
X81647180Y-47521049D01*
X81611384Y-47467749D01*
X81578451Y-47412829D01*
X81548382Y-47356289D01*
X81521177Y-47298129D01*
X81496836Y-47238348D01*
X81475358Y-47176947D01*
X81456744Y-47113926D01*
X81440993Y-47049285D01*
X81428107Y-46983023D01*
X81418084Y-46915142D01*
X81410925Y-46845640D01*
X81406629Y-46774517D01*
X81405197Y-46701775D01*
X81405197Y-44304680D01*
X81967087Y-44304680D01*
X81967087Y-46547440D01*
G36*
X81967087Y-46547440D02*
G01*
X81967699Y-46606420D01*
X81969536Y-46663385D01*
X81972598Y-46718333D01*
X81976884Y-46771265D01*
X81982395Y-46822181D01*
X81989131Y-46871081D01*
X81997091Y-46917965D01*
X82006276Y-46962834D01*
X82016686Y-47005686D01*
X82028320Y-47046522D01*
X82041178Y-47085343D01*
X82055262Y-47122147D01*
X82070570Y-47156936D01*
X82087102Y-47189709D01*
X82104859Y-47220466D01*
X82123840Y-47249207D01*
X82153826Y-47288047D01*
X82185299Y-47324381D01*
X82218261Y-47358209D01*
X82252711Y-47389531D01*
X82288649Y-47418348D01*
X82326076Y-47444659D01*
X82364991Y-47468463D01*
X82405394Y-47489763D01*
X82447285Y-47508556D01*
X82490665Y-47524843D01*
X82535533Y-47538625D01*
X82581889Y-47549901D01*
X82629733Y-47558671D01*
X82679066Y-47564935D01*
X82729887Y-47568694D01*
X82782196Y-47569946D01*
X82834799Y-47568694D01*
X82885895Y-47564935D01*
X82935483Y-47558671D01*
X82983564Y-47549901D01*
X83030137Y-47538625D01*
X83075203Y-47524843D01*
X83118762Y-47508556D01*
X83160813Y-47489763D01*
X83201357Y-47468463D01*
X83240394Y-47444659D01*
X83277924Y-47418348D01*
X83313946Y-47389531D01*
X83348461Y-47358209D01*
X83381469Y-47324381D01*
X83412969Y-47288047D01*
X83442963Y-47249207D01*
X83461944Y-47221313D01*
X83479701Y-47191291D01*
X83496233Y-47159139D01*
X83511541Y-47124859D01*
X83525625Y-47088450D01*
X83538483Y-47049912D01*
X83550117Y-47009246D01*
X83560527Y-46966450D01*
X83569712Y-46921525D01*
X83577672Y-46874472D01*
X83584408Y-46825289D01*
X83589919Y-46773977D01*
X83594205Y-46720537D01*
X83597267Y-46664967D01*
X83599104Y-46607268D01*
X83599716Y-46547440D01*
X83599716Y-44304680D01*
X84161613Y-44304680D01*
X84161613Y-46701775D01*
X84160182Y-46774517D01*
X84155886Y-46845640D01*
X84148727Y-46915142D01*
X84138704Y-46983023D01*
X84125817Y-47049285D01*
X84110066Y-47113926D01*
X84091452Y-47176947D01*
X84069974Y-47238348D01*
X84045632Y-47298129D01*
X84018426Y-47356289D01*
X83988357Y-47412829D01*
X83955423Y-47467749D01*
X83919626Y-47521049D01*
X83880965Y-47572728D01*
X83839440Y-47622788D01*
X83795052Y-47671227D01*
X83742770Y-47722624D01*
X83689018Y-47770704D01*
X83633798Y-47815469D01*
X83577107Y-47856919D01*
X83518947Y-47895052D01*
X83459318Y-47929869D01*
X83398219Y-47961370D01*
X83335650Y-47989556D01*
X83271612Y-48014425D01*
X83206105Y-48035979D01*
X83139127Y-48054216D01*
X83070680Y-48069138D01*
X83000764Y-48080744D01*
X82929377Y-48089033D01*
X82856522Y-48094007D01*
X82782196Y-48095665D01*
X82707880Y-48094007D01*
X82635052Y-48089033D01*
X82563713Y-48080744D01*
X82493862Y-48069138D01*
X82425500Y-48054216D01*
X82358626Y-48035979D01*
X82293240Y-48014425D01*
X82229343Y-47989556D01*
X82166935Y-47961370D01*
X82106015Y-47929869D01*
X82046583Y-47895052D01*
X81988640Y-47856919D01*
X81932185Y-47815469D01*
X81877219Y-47770704D01*
X81823741Y-47722624D01*
X81771751Y-47671227D01*
X81727364Y-47622788D01*
X81685840Y-47572728D01*
X81647180Y-47521049D01*
X81611384Y-47467749D01*
X81578451Y-47412829D01*
X81548382Y-47356289D01*
X81521177Y-47298129D01*
X81496836Y-47238348D01*
X81475358Y-47176947D01*
X81456744Y-47113926D01*
X81440993Y-47049285D01*
X81428107Y-46983023D01*
X81418084Y-46915142D01*
X81410925Y-46845640D01*
X81406629Y-46774517D01*
X81405197Y-46701775D01*
X81405197Y-44304680D01*
X81967087Y-44304680D01*
X81967087Y-46547440D01*
G37*
X89114975Y-47500000D02*
X90209824Y-47500000D01*
X90209824Y-48028130D01*
X88553078Y-48028130D01*
X88553078Y-44304672D01*
X89114975Y-44304672D01*
X89114975Y-47500000D01*
G36*
X89114975Y-47500000D02*
G01*
X90209824Y-47500000D01*
X90209824Y-48028130D01*
X88553078Y-48028130D01*
X88553078Y-44304672D01*
X89114975Y-44304672D01*
X89114975Y-47500000D01*
G37*
X90068932Y-153772690D02*
X90069369Y-153814817D01*
X90070681Y-153855504D01*
X90072868Y-153894751D01*
X90075930Y-153932558D01*
X90079866Y-153968926D01*
X90084677Y-154003854D01*
X90090363Y-154037343D01*
X90096923Y-154069391D01*
X90104358Y-154100000D01*
X90112668Y-154129170D01*
X90121852Y-154156900D01*
X90131911Y-154183190D01*
X90142845Y-154208041D01*
X90154653Y-154231452D01*
X90167336Y-154253424D01*
X90180893Y-154273956D01*
X90202310Y-154301698D01*
X90224790Y-154327649D01*
X90248334Y-154351811D01*
X90272941Y-154374184D01*
X90298610Y-154394766D01*
X90325343Y-154413559D01*
X90353140Y-154430563D01*
X90381999Y-154445776D01*
X90411922Y-154459200D01*
X90442907Y-154470834D01*
X90474956Y-154480678D01*
X90508068Y-154488733D01*
X90542243Y-154494997D01*
X90577481Y-154499472D01*
X90613782Y-154502157D01*
X90651146Y-154503052D01*
X90688719Y-154502157D01*
X90725216Y-154499472D01*
X90760636Y-154494997D01*
X90794980Y-154488733D01*
X90828246Y-154480678D01*
X90860437Y-154470834D01*
X90891550Y-154459200D01*
X90921587Y-154445776D01*
X90950547Y-154430563D01*
X90978431Y-154413559D01*
X91005238Y-154394766D01*
X91030968Y-154374184D01*
X91055622Y-154351811D01*
X91079199Y-154327649D01*
X91101699Y-154301698D01*
X91123123Y-154273956D01*
X91136682Y-154254033D01*
X91149366Y-154232589D01*
X91161175Y-154209624D01*
X91172110Y-154185139D01*
X91182169Y-154159132D01*
X91191354Y-154131605D01*
X91199664Y-154102558D01*
X91207100Y-154071989D01*
X91213661Y-154039900D01*
X91219347Y-154006290D01*
X91224158Y-153971159D01*
X91228094Y-153934507D01*
X91231156Y-153896334D01*
X91233343Y-153856640D01*
X91234655Y-153815426D01*
X91235092Y-153772690D01*
X91235092Y-152170715D01*
X91636444Y-152170715D01*
X91636444Y-153882919D01*
X91635421Y-153934878D01*
X91632353Y-153985679D01*
X91627240Y-154035323D01*
X91620080Y-154083809D01*
X91610876Y-154131138D01*
X91599626Y-154177310D01*
X91586330Y-154222325D01*
X91570989Y-154266182D01*
X91553602Y-154308882D01*
X91534170Y-154350425D01*
X91512692Y-154390810D01*
X91489168Y-154430039D01*
X91463599Y-154468109D01*
X91435985Y-154505023D01*
X91406324Y-154540779D01*
X91374619Y-154575379D01*
X91337274Y-154612091D01*
X91298879Y-154646436D01*
X91259435Y-154678411D01*
X91218942Y-154708018D01*
X91177398Y-154735257D01*
X91134805Y-154760127D01*
X91091163Y-154782628D01*
X91046471Y-154802761D01*
X91000729Y-154820525D01*
X90953937Y-154835921D01*
X90906096Y-154848948D01*
X90857205Y-154859607D01*
X90807265Y-154867897D01*
X90756275Y-154873818D01*
X90704235Y-154877371D01*
X90651146Y-154878555D01*
X90598063Y-154877371D01*
X90546044Y-154873818D01*
X90495088Y-154867897D01*
X90445195Y-154859607D01*
X90396365Y-154848948D01*
X90348598Y-154835921D01*
X90301895Y-154820525D01*
X90256254Y-154802761D01*
X90211677Y-154782628D01*
X90168162Y-154760127D01*
X90125711Y-154735257D01*
X90084322Y-154708018D01*
X90043997Y-154678411D01*
X90004734Y-154646436D01*
X89966534Y-154612091D01*
X89929398Y-154575379D01*
X89897692Y-154540779D01*
X89868031Y-154505023D01*
X89840417Y-154468109D01*
X89814848Y-154430039D01*
X89791324Y-154390810D01*
X89769847Y-154350425D01*
X89750414Y-154308882D01*
X89733027Y-154266182D01*
X89717686Y-154222325D01*
X89704391Y-154177310D01*
X89693140Y-154131138D01*
X89683936Y-154083809D01*
X89676777Y-154035323D01*
X89671663Y-153985679D01*
X89668595Y-153934878D01*
X89667572Y-153882919D01*
X89667572Y-152170715D01*
X90068932Y-152170715D01*
X90068932Y-153772690D01*
G36*
X90068932Y-153772690D02*
G01*
X90069369Y-153814817D01*
X90070681Y-153855504D01*
X90072868Y-153894751D01*
X90075930Y-153932558D01*
X90079866Y-153968926D01*
X90084677Y-154003854D01*
X90090363Y-154037343D01*
X90096923Y-154069391D01*
X90104358Y-154100000D01*
X90112668Y-154129170D01*
X90121852Y-154156900D01*
X90131911Y-154183190D01*
X90142845Y-154208041D01*
X90154653Y-154231452D01*
X90167336Y-154253424D01*
X90180893Y-154273956D01*
X90202310Y-154301698D01*
X90224790Y-154327649D01*
X90248334Y-154351811D01*
X90272941Y-154374184D01*
X90298610Y-154394766D01*
X90325343Y-154413559D01*
X90353140Y-154430563D01*
X90381999Y-154445776D01*
X90411922Y-154459200D01*
X90442907Y-154470834D01*
X90474956Y-154480678D01*
X90508068Y-154488733D01*
X90542243Y-154494997D01*
X90577481Y-154499472D01*
X90613782Y-154502157D01*
X90651146Y-154503052D01*
X90688719Y-154502157D01*
X90725216Y-154499472D01*
X90760636Y-154494997D01*
X90794980Y-154488733D01*
X90828246Y-154480678D01*
X90860437Y-154470834D01*
X90891550Y-154459200D01*
X90921587Y-154445776D01*
X90950547Y-154430563D01*
X90978431Y-154413559D01*
X91005238Y-154394766D01*
X91030968Y-154374184D01*
X91055622Y-154351811D01*
X91079199Y-154327649D01*
X91101699Y-154301698D01*
X91123123Y-154273956D01*
X91136682Y-154254033D01*
X91149366Y-154232589D01*
X91161175Y-154209624D01*
X91172110Y-154185139D01*
X91182169Y-154159132D01*
X91191354Y-154131605D01*
X91199664Y-154102558D01*
X91207100Y-154071989D01*
X91213661Y-154039900D01*
X91219347Y-154006290D01*
X91224158Y-153971159D01*
X91228094Y-153934507D01*
X91231156Y-153896334D01*
X91233343Y-153856640D01*
X91234655Y-153815426D01*
X91235092Y-153772690D01*
X91235092Y-152170715D01*
X91636444Y-152170715D01*
X91636444Y-153882919D01*
X91635421Y-153934878D01*
X91632353Y-153985679D01*
X91627240Y-154035323D01*
X91620080Y-154083809D01*
X91610876Y-154131138D01*
X91599626Y-154177310D01*
X91586330Y-154222325D01*
X91570989Y-154266182D01*
X91553602Y-154308882D01*
X91534170Y-154350425D01*
X91512692Y-154390810D01*
X91489168Y-154430039D01*
X91463599Y-154468109D01*
X91435985Y-154505023D01*
X91406324Y-154540779D01*
X91374619Y-154575379D01*
X91337274Y-154612091D01*
X91298879Y-154646436D01*
X91259435Y-154678411D01*
X91218942Y-154708018D01*
X91177398Y-154735257D01*
X91134805Y-154760127D01*
X91091163Y-154782628D01*
X91046471Y-154802761D01*
X91000729Y-154820525D01*
X90953937Y-154835921D01*
X90906096Y-154848948D01*
X90857205Y-154859607D01*
X90807265Y-154867897D01*
X90756275Y-154873818D01*
X90704235Y-154877371D01*
X90651146Y-154878555D01*
X90598063Y-154877371D01*
X90546044Y-154873818D01*
X90495088Y-154867897D01*
X90445195Y-154859607D01*
X90396365Y-154848948D01*
X90348598Y-154835921D01*
X90301895Y-154820525D01*
X90256254Y-154802761D01*
X90211677Y-154782628D01*
X90168162Y-154760127D01*
X90125711Y-154735257D01*
X90084322Y-154708018D01*
X90043997Y-154678411D01*
X90004734Y-154646436D01*
X89966534Y-154612091D01*
X89929398Y-154575379D01*
X89897692Y-154540779D01*
X89868031Y-154505023D01*
X89840417Y-154468109D01*
X89814848Y-154430039D01*
X89791324Y-154390810D01*
X89769847Y-154350425D01*
X89750414Y-154308882D01*
X89733027Y-154266182D01*
X89717686Y-154222325D01*
X89704391Y-154177310D01*
X89693140Y-154131138D01*
X89683936Y-154083809D01*
X89676777Y-154035323D01*
X89671663Y-153985679D01*
X89668595Y-153934878D01*
X89667572Y-153882919D01*
X89667572Y-152170715D01*
X90068932Y-152170715D01*
X90068932Y-153772690D01*
G37*
X102180847Y-48028130D02*
X101565895Y-48028130D01*
X101175217Y-47123795D01*
X99581177Y-47123795D01*
X99166389Y-48028130D01*
X98561081Y-48028130D01*
X99227997Y-46595658D01*
X99815094Y-46595658D01*
X100946114Y-46595658D01*
X100393875Y-45329582D01*
X99815094Y-46595658D01*
X99227997Y-46595658D01*
X100403519Y-44070748D01*
X102180847Y-48028130D01*
G36*
X102180847Y-48028130D02*
G01*
X101565895Y-48028130D01*
X101175217Y-47123795D01*
X99581177Y-47123795D01*
X99166389Y-48028130D01*
X98561081Y-48028130D01*
X99227997Y-46595658D01*
X99815094Y-46595658D01*
X100946114Y-46595658D01*
X100393875Y-45329582D01*
X99815094Y-46595658D01*
X99227997Y-46595658D01*
X100403519Y-44070748D01*
X102180847Y-48028130D01*
G37*
D11*
X85926163Y-64849701D02*
X85880510Y-65035629D01*
D10*
X93484734Y-46885048D02*
X94528946Y-44304672D01*
X95143890Y-44304672D01*
X93472679Y-48307877D01*
X91840050Y-44304672D01*
X92454994Y-44304672D01*
X93484734Y-46885048D01*
G36*
X93484734Y-46885048D02*
G01*
X94528946Y-44304672D01*
X95143890Y-44304672D01*
X93472679Y-48307877D01*
X91840050Y-44304672D01*
X92454994Y-44304672D01*
X93484734Y-46885048D01*
G37*
D11*
X84737885Y-66397934D02*
X84620864Y-66452942D01*
X85408016Y-65898056D02*
X85304713Y-66003876D01*
X83878634Y-66671372D02*
X83718751Y-66693955D01*
X85304713Y-66003876D02*
X85196836Y-66100083D01*
D10*
X88750023Y-66207184D02*
X87917374Y-65526566D01*
X88750023Y-64845947D01*
X88750023Y-66207184D01*
G36*
X88750023Y-66207184D02*
G01*
X87917374Y-65526566D01*
X88750023Y-64845947D01*
X88750023Y-66207184D01*
G37*
X91144653Y-122939072D02*
X91890518Y-121095947D01*
X92329765Y-121095947D01*
X91136040Y-123955368D01*
X89969879Y-121095947D01*
X90409126Y-121095947D01*
X91144653Y-122939072D01*
G36*
X91144653Y-122939072D02*
G01*
X91890518Y-121095947D01*
X92329765Y-121095947D01*
X91136040Y-123955368D01*
X89969879Y-121095947D01*
X90409126Y-121095947D01*
X91144653Y-122939072D01*
G37*
D11*
X96445770Y-64276566D02*
X93945770Y-66776566D01*
D10*
X88710701Y-138839096D02*
X88309349Y-138839096D01*
X88309349Y-136179489D01*
X88710701Y-136179489D01*
X88710701Y-138839096D01*
G36*
X88710701Y-138839096D02*
G01*
X88309349Y-138839096D01*
X88309349Y-136179489D01*
X88710701Y-136179489D01*
X88710701Y-138839096D01*
G37*
X92082672Y-65526566D02*
X91250023Y-66207184D01*
X91250023Y-64845947D01*
X92082672Y-65526566D01*
G36*
X92082672Y-65526566D02*
G01*
X91250023Y-66207184D01*
X91250023Y-64845947D01*
X92082672Y-65526566D01*
G37*
D11*
X84504759Y-66501083D02*
X84278960Y-66578598D01*
X84278960Y-66578598D02*
X84067811Y-66634140D01*
X88750023Y-65526566D02*
X91250023Y-65526566D01*
X85988083Y-64210434D02*
X85980865Y-64437561D01*
D10*
X97282822Y-44233395D02*
X97345127Y-44236588D01*
X97407168Y-44241911D01*
X97468946Y-44249362D01*
X97530460Y-44258943D01*
X97591710Y-44270652D01*
X97652696Y-44284490D01*
X97713419Y-44300457D01*
X97773878Y-44318553D01*
X97834073Y-44338778D01*
X97894004Y-44361133D01*
X97953672Y-44385616D01*
X98013076Y-44412228D01*
X98072216Y-44440968D01*
X98131092Y-44471838D01*
X98189697Y-44504833D01*
X98189697Y-45170426D01*
X98128674Y-45121073D01*
X98067387Y-45074904D01*
X98005836Y-45031920D01*
X97944021Y-44992119D01*
X97881943Y-44955503D01*
X97819600Y-44922071D01*
X97756994Y-44891823D01*
X97694123Y-44864759D01*
X97630989Y-44840879D01*
X97567591Y-44820183D01*
X97503929Y-44802671D01*
X97440004Y-44788343D01*
X97375814Y-44777199D01*
X97311361Y-44769239D01*
X97246644Y-44764463D01*
X97181664Y-44762871D01*
X97110626Y-44764482D01*
X97041001Y-44769314D01*
X96972789Y-44777369D01*
X96905991Y-44788645D01*
X96840605Y-44803142D01*
X96776633Y-44820861D01*
X96714074Y-44841802D01*
X96652927Y-44865965D01*
X96593194Y-44893349D01*
X96534874Y-44923956D01*
X96477966Y-44957783D01*
X96422472Y-44994833D01*
X96368390Y-45035104D01*
X96315721Y-45078597D01*
X96264466Y-45125311D01*
X96214622Y-45175247D01*
X96166730Y-45227209D01*
X96121928Y-45280602D01*
X96080215Y-45335427D01*
X96041592Y-45391684D01*
X96006059Y-45449373D01*
X95973616Y-45508494D01*
X95944262Y-45569046D01*
X95917998Y-45631031D01*
X95894824Y-45694448D01*
X95874740Y-45759297D01*
X95857746Y-45825577D01*
X95843841Y-45893290D01*
X95833027Y-45962434D01*
X95825302Y-46033011D01*
X95820667Y-46105019D01*
X95819122Y-46178459D01*
X95820667Y-46250996D01*
X95825302Y-46322100D01*
X95833027Y-46391772D01*
X95843841Y-46460013D01*
X95857746Y-46526821D01*
X95874740Y-46592198D01*
X95894824Y-46656142D01*
X95917998Y-46718655D01*
X95944262Y-46779736D01*
X95973616Y-46839384D01*
X96006059Y-46897601D01*
X96041592Y-46954386D01*
X96080215Y-47009739D01*
X96121928Y-47063660D01*
X96166730Y-47116149D01*
X96214622Y-47167206D01*
X96264757Y-47215974D01*
X96316285Y-47261596D01*
X96369208Y-47304071D01*
X96423524Y-47343401D01*
X96479235Y-47379584D01*
X96536341Y-47412620D01*
X96594840Y-47442511D01*
X96654734Y-47469255D01*
X96716021Y-47492852D01*
X96778704Y-47513304D01*
X96842780Y-47530609D01*
X96908250Y-47544768D01*
X96975115Y-47555780D01*
X97043374Y-47563646D01*
X97113027Y-47568366D01*
X97184074Y-47569939D01*
X97220803Y-47569562D01*
X97256835Y-47568432D01*
X97292170Y-47566548D01*
X97326808Y-47563911D01*
X97360749Y-47560520D01*
X97393993Y-47556375D01*
X97426539Y-47551477D01*
X97458389Y-47545825D01*
X97489542Y-47539420D01*
X97519998Y-47532261D01*
X97549757Y-47524348D01*
X97578818Y-47515682D01*
X97607183Y-47506262D01*
X97634851Y-47496089D01*
X97661821Y-47485161D01*
X97688095Y-47473480D01*
X97717147Y-47460894D01*
X97746424Y-47447253D01*
X97775928Y-47432558D01*
X97805656Y-47416807D01*
X97835611Y-47400002D01*
X97865793Y-47382142D01*
X97896200Y-47363226D01*
X97926834Y-47343254D01*
X97958376Y-47322228D01*
X97990293Y-47300147D01*
X98022587Y-47277012D01*
X98055256Y-47252821D01*
X98088301Y-47227576D01*
X98121723Y-47201275D01*
X98155522Y-47173919D01*
X98189697Y-47145508D01*
X98189697Y-47823158D01*
X98129220Y-47856157D01*
X98068366Y-47887027D01*
X98007135Y-47915768D01*
X97945528Y-47942380D01*
X97883543Y-47966863D01*
X97821182Y-47989217D01*
X97758444Y-48009442D01*
X97695330Y-48027538D01*
X97631838Y-48043506D01*
X97567970Y-48057344D01*
X97503725Y-48069053D01*
X97439104Y-48078634D01*
X97374105Y-48086085D01*
X97308730Y-48091407D01*
X97242978Y-48094601D01*
X97176849Y-48095665D01*
X97077984Y-48093489D01*
X96980945Y-48086961D01*
X96885735Y-48076081D01*
X96792352Y-48060848D01*
X96700797Y-48041263D01*
X96611069Y-48017326D01*
X96523169Y-47989037D01*
X96437097Y-47956396D01*
X96352852Y-47919403D01*
X96270434Y-47878058D01*
X96189844Y-47832360D01*
X96111082Y-47782310D01*
X96034147Y-47727908D01*
X95959040Y-47669154D01*
X95885760Y-47606048D01*
X95814308Y-47538590D01*
X95746266Y-47467449D01*
X95682615Y-47394499D01*
X95623353Y-47319740D01*
X95568480Y-47243173D01*
X95517998Y-47164797D01*
X95471906Y-47084613D01*
X95430203Y-47002620D01*
X95392890Y-46918818D01*
X95359967Y-46833207D01*
X95331434Y-46745788D01*
X95307290Y-46656560D01*
X95287536Y-46565523D01*
X95272172Y-46472677D01*
X95261198Y-46378023D01*
X95254613Y-46281560D01*
X95252419Y-46183289D01*
X95254255Y-46094965D01*
X95259766Y-46007848D01*
X95268951Y-45921936D01*
X95281810Y-45837229D01*
X95298342Y-45753729D01*
X95318549Y-45671434D01*
X95342429Y-45590345D01*
X95369983Y-45510462D01*
X95401211Y-45431785D01*
X95436112Y-45354313D01*
X95474688Y-45278047D01*
X95516937Y-45202986D01*
X95562860Y-45129132D01*
X95612457Y-45056483D01*
X95665727Y-44985040D01*
X95722672Y-44914803D01*
X95796348Y-44832160D01*
X95872680Y-44754849D01*
X95951669Y-44682870D01*
X96033314Y-44616222D01*
X96117616Y-44554906D01*
X96204574Y-44498922D01*
X96294188Y-44448270D01*
X96386458Y-44402950D01*
X96481385Y-44362961D01*
X96578969Y-44328304D01*
X96679208Y-44298979D01*
X96782104Y-44274985D01*
X96887657Y-44256324D01*
X96995866Y-44242994D01*
X97106731Y-44234996D01*
X97220253Y-44232331D01*
X97282822Y-44233395D01*
G36*
X97282822Y-44233395D02*
G01*
X97345127Y-44236588D01*
X97407168Y-44241911D01*
X97468946Y-44249362D01*
X97530460Y-44258943D01*
X97591710Y-44270652D01*
X97652696Y-44284490D01*
X97713419Y-44300457D01*
X97773878Y-44318553D01*
X97834073Y-44338778D01*
X97894004Y-44361133D01*
X97953672Y-44385616D01*
X98013076Y-44412228D01*
X98072216Y-44440968D01*
X98131092Y-44471838D01*
X98189697Y-44504833D01*
X98189697Y-45170426D01*
X98128674Y-45121073D01*
X98067387Y-45074904D01*
X98005836Y-45031920D01*
X97944021Y-44992119D01*
X97881943Y-44955503D01*
X97819600Y-44922071D01*
X97756994Y-44891823D01*
X97694123Y-44864759D01*
X97630989Y-44840879D01*
X97567591Y-44820183D01*
X97503929Y-44802671D01*
X97440004Y-44788343D01*
X97375814Y-44777199D01*
X97311361Y-44769239D01*
X97246644Y-44764463D01*
X97181664Y-44762871D01*
X97110626Y-44764482D01*
X97041001Y-44769314D01*
X96972789Y-44777369D01*
X96905991Y-44788645D01*
X96840605Y-44803142D01*
X96776633Y-44820861D01*
X96714074Y-44841802D01*
X96652927Y-44865965D01*
X96593194Y-44893349D01*
X96534874Y-44923956D01*
X96477966Y-44957783D01*
X96422472Y-44994833D01*
X96368390Y-45035104D01*
X96315721Y-45078597D01*
X96264466Y-45125311D01*
X96214622Y-45175247D01*
X96166730Y-45227209D01*
X96121928Y-45280602D01*
X96080215Y-45335427D01*
X96041592Y-45391684D01*
X96006059Y-45449373D01*
X95973616Y-45508494D01*
X95944262Y-45569046D01*
X95917998Y-45631031D01*
X95894824Y-45694448D01*
X95874740Y-45759297D01*
X95857746Y-45825577D01*
X95843841Y-45893290D01*
X95833027Y-45962434D01*
X95825302Y-46033011D01*
X95820667Y-46105019D01*
X95819122Y-46178459D01*
X95820667Y-46250996D01*
X95825302Y-46322100D01*
X95833027Y-46391772D01*
X95843841Y-46460013D01*
X95857746Y-46526821D01*
X95874740Y-46592198D01*
X95894824Y-46656142D01*
X95917998Y-46718655D01*
X95944262Y-46779736D01*
X95973616Y-46839384D01*
X96006059Y-46897601D01*
X96041592Y-46954386D01*
X96080215Y-47009739D01*
X96121928Y-47063660D01*
X96166730Y-47116149D01*
X96214622Y-47167206D01*
X96264757Y-47215974D01*
X96316285Y-47261596D01*
X96369208Y-47304071D01*
X96423524Y-47343401D01*
X96479235Y-47379584D01*
X96536341Y-47412620D01*
X96594840Y-47442511D01*
X96654734Y-47469255D01*
X96716021Y-47492852D01*
X96778704Y-47513304D01*
X96842780Y-47530609D01*
X96908250Y-47544768D01*
X96975115Y-47555780D01*
X97043374Y-47563646D01*
X97113027Y-47568366D01*
X97184074Y-47569939D01*
X97220803Y-47569562D01*
X97256835Y-47568432D01*
X97292170Y-47566548D01*
X97326808Y-47563911D01*
X97360749Y-47560520D01*
X97393993Y-47556375D01*
X97426539Y-47551477D01*
X97458389Y-47545825D01*
X97489542Y-47539420D01*
X97519998Y-47532261D01*
X97549757Y-47524348D01*
X97578818Y-47515682D01*
X97607183Y-47506262D01*
X97634851Y-47496089D01*
X97661821Y-47485161D01*
X97688095Y-47473480D01*
X97717147Y-47460894D01*
X97746424Y-47447253D01*
X97775928Y-47432558D01*
X97805656Y-47416807D01*
X97835611Y-47400002D01*
X97865793Y-47382142D01*
X97896200Y-47363226D01*
X97926834Y-47343254D01*
X97958376Y-47322228D01*
X97990293Y-47300147D01*
X98022587Y-47277012D01*
X98055256Y-47252821D01*
X98088301Y-47227576D01*
X98121723Y-47201275D01*
X98155522Y-47173919D01*
X98189697Y-47145508D01*
X98189697Y-47823158D01*
X98129220Y-47856157D01*
X98068366Y-47887027D01*
X98007135Y-47915768D01*
X97945528Y-47942380D01*
X97883543Y-47966863D01*
X97821182Y-47989217D01*
X97758444Y-48009442D01*
X97695330Y-48027538D01*
X97631838Y-48043506D01*
X97567970Y-48057344D01*
X97503725Y-48069053D01*
X97439104Y-48078634D01*
X97374105Y-48086085D01*
X97308730Y-48091407D01*
X97242978Y-48094601D01*
X97176849Y-48095665D01*
X97077984Y-48093489D01*
X96980945Y-48086961D01*
X96885735Y-48076081D01*
X96792352Y-48060848D01*
X96700797Y-48041263D01*
X96611069Y-48017326D01*
X96523169Y-47989037D01*
X96437097Y-47956396D01*
X96352852Y-47919403D01*
X96270434Y-47878058D01*
X96189844Y-47832360D01*
X96111082Y-47782310D01*
X96034147Y-47727908D01*
X95959040Y-47669154D01*
X95885760Y-47606048D01*
X95814308Y-47538590D01*
X95746266Y-47467449D01*
X95682615Y-47394499D01*
X95623353Y-47319740D01*
X95568480Y-47243173D01*
X95517998Y-47164797D01*
X95471906Y-47084613D01*
X95430203Y-47002620D01*
X95392890Y-46918818D01*
X95359967Y-46833207D01*
X95331434Y-46745788D01*
X95307290Y-46656560D01*
X95287536Y-46565523D01*
X95272172Y-46472677D01*
X95261198Y-46378023D01*
X95254613Y-46281560D01*
X95252419Y-46183289D01*
X95254255Y-46094965D01*
X95259766Y-46007848D01*
X95268951Y-45921936D01*
X95281810Y-45837229D01*
X95298342Y-45753729D01*
X95318549Y-45671434D01*
X95342429Y-45590345D01*
X95369983Y-45510462D01*
X95401211Y-45431785D01*
X95436112Y-45354313D01*
X95474688Y-45278047D01*
X95516937Y-45202986D01*
X95562860Y-45129132D01*
X95612457Y-45056483D01*
X95665727Y-44985040D01*
X95722672Y-44914803D01*
X95796348Y-44832160D01*
X95872680Y-44754849D01*
X95951669Y-44682870D01*
X96033314Y-44616222D01*
X96117616Y-44554906D01*
X96204574Y-44498922D01*
X96294188Y-44448270D01*
X96386458Y-44402950D01*
X96481385Y-44362961D01*
X96578969Y-44328304D01*
X96679208Y-44298979D01*
X96782104Y-44274985D01*
X96887657Y-44256324D01*
X96995866Y-44242994D01*
X97106731Y-44234996D01*
X97220253Y-44232331D01*
X97282822Y-44233395D01*
G37*
D11*
X84971019Y-66265488D02*
X84854909Y-66335602D01*
D10*
X78737321Y-44306413D02*
X78866717Y-44311614D01*
X78988727Y-44320280D01*
X79103353Y-44332414D01*
X79210592Y-44348014D01*
X79310447Y-44367080D01*
X79402916Y-44389613D01*
X79446381Y-44402179D01*
X79487999Y-44415611D01*
X79531454Y-44429770D01*
X79574400Y-44445116D01*
X79616838Y-44461649D01*
X79658767Y-44479368D01*
X79700188Y-44498274D01*
X79741100Y-44518368D01*
X79781503Y-44539648D01*
X79821398Y-44562115D01*
X79860784Y-44585769D01*
X79899661Y-44610610D01*
X79938029Y-44636638D01*
X79975888Y-44663853D01*
X80013239Y-44692255D01*
X80050081Y-44721844D01*
X80086414Y-44752621D01*
X80122238Y-44784584D01*
X80192032Y-44851590D01*
X80257322Y-44921176D01*
X80318110Y-44993344D01*
X80374396Y-45068093D01*
X80426178Y-45145423D01*
X80473458Y-45225334D01*
X80516235Y-45307827D01*
X80554509Y-45392901D01*
X80588281Y-45480556D01*
X80617549Y-45570792D01*
X80642315Y-45663609D01*
X80662578Y-45759007D01*
X80678338Y-45856987D01*
X80689595Y-45957548D01*
X80696349Y-46060689D01*
X80698601Y-46166413D01*
X80696255Y-46272447D01*
X80689218Y-46375919D01*
X80677490Y-46476828D01*
X80661071Y-46575175D01*
X80639961Y-46670960D01*
X80614159Y-46764183D01*
X80583666Y-46854842D01*
X80548482Y-46942940D01*
X80508606Y-47028475D01*
X80464040Y-47111448D01*
X80414782Y-47191858D01*
X80360832Y-47269706D01*
X80302192Y-47344991D01*
X80238860Y-47417715D01*
X80170836Y-47487875D01*
X80098122Y-47555474D01*
X80060328Y-47588002D01*
X80022307Y-47619268D01*
X79984061Y-47649271D01*
X79945589Y-47678012D01*
X79906891Y-47705491D01*
X79867967Y-47731708D01*
X79828816Y-47756663D01*
X79789440Y-47780355D01*
X79749838Y-47802784D01*
X79710010Y-47823952D01*
X79669955Y-47843857D01*
X79629675Y-47862500D01*
X79589169Y-47879880D01*
X79548436Y-47895998D01*
X79507478Y-47910853D01*
X79466293Y-47924446D01*
X79426700Y-47937003D01*
X79385091Y-47948750D01*
X79341467Y-47959687D01*
X79295826Y-47969813D01*
X79248170Y-47979130D01*
X79198498Y-47987637D01*
X79146809Y-47995333D01*
X79093105Y-48002219D01*
X79037385Y-48008296D01*
X78979649Y-48013562D01*
X78858129Y-48021664D01*
X78728545Y-48026525D01*
X78590897Y-48028145D01*
X77819191Y-48028137D01*
X77819191Y-44832810D01*
X78381088Y-44832810D01*
X78381088Y-47500008D01*
X78634300Y-47500008D01*
X78726957Y-47498764D01*
X78815620Y-47495034D01*
X78900289Y-47488817D01*
X78980964Y-47480112D01*
X79057644Y-47468921D01*
X79130330Y-47455243D01*
X79199021Y-47439078D01*
X79263718Y-47420426D01*
X79294879Y-47409489D01*
X79325664Y-47397781D01*
X79356072Y-47385299D01*
X79386103Y-47372046D01*
X79415758Y-47358019D01*
X79445036Y-47343221D01*
X79473938Y-47327649D01*
X79502462Y-47311305D01*
X79530610Y-47294189D01*
X79558381Y-47276300D01*
X79585776Y-47257638D01*
X79612793Y-47238204D01*
X79639434Y-47217997D01*
X79665698Y-47197018D01*
X79691584Y-47175265D01*
X79717094Y-47152741D01*
X79767323Y-47104519D01*
X79814311Y-47054507D01*
X79858058Y-47002706D01*
X79898565Y-46949114D01*
X79935831Y-46893733D01*
X79969857Y-46836563D01*
X80000641Y-46777602D01*
X80028186Y-46716851D01*
X80052490Y-46654311D01*
X80073553Y-46589981D01*
X80091376Y-46523861D01*
X80105958Y-46455951D01*
X80117300Y-46386251D01*
X80125401Y-46314762D01*
X80130261Y-46241482D01*
X80131882Y-46166413D01*
X80130280Y-46090749D01*
X80125476Y-46016894D01*
X80117469Y-45944848D01*
X80106259Y-45874611D01*
X80091845Y-45806182D01*
X80074230Y-45739563D01*
X80053411Y-45674752D01*
X80029389Y-45611750D01*
X80002165Y-45550556D01*
X79971738Y-45491172D01*
X79938108Y-45433596D01*
X79901275Y-45377828D01*
X79861239Y-45323869D01*
X79818001Y-45271719D01*
X79771560Y-45221377D01*
X79721916Y-45172844D01*
X79674429Y-45131668D01*
X79624210Y-45093148D01*
X79571259Y-45057285D01*
X79515576Y-45024078D01*
X79457162Y-44993528D01*
X79396015Y-44965635D01*
X79332137Y-44940398D01*
X79265527Y-44917817D01*
X79196185Y-44897894D01*
X79124111Y-44880626D01*
X79049305Y-44866016D01*
X78971768Y-44854061D01*
X78891499Y-44844764D01*
X78808498Y-44838123D01*
X78722765Y-44834138D01*
X78634300Y-44832810D01*
X78381088Y-44832810D01*
X77819191Y-44832810D01*
X77819191Y-44304680D01*
X78600540Y-44304680D01*
X78737321Y-44306413D01*
G36*
X78737321Y-44306413D02*
G01*
X78866717Y-44311614D01*
X78988727Y-44320280D01*
X79103353Y-44332414D01*
X79210592Y-44348014D01*
X79310447Y-44367080D01*
X79402916Y-44389613D01*
X79446381Y-44402179D01*
X79487999Y-44415611D01*
X79531454Y-44429770D01*
X79574400Y-44445116D01*
X79616838Y-44461649D01*
X79658767Y-44479368D01*
X79700188Y-44498274D01*
X79741100Y-44518368D01*
X79781503Y-44539648D01*
X79821398Y-44562115D01*
X79860784Y-44585769D01*
X79899661Y-44610610D01*
X79938029Y-44636638D01*
X79975888Y-44663853D01*
X80013239Y-44692255D01*
X80050081Y-44721844D01*
X80086414Y-44752621D01*
X80122238Y-44784584D01*
X80192032Y-44851590D01*
X80257322Y-44921176D01*
X80318110Y-44993344D01*
X80374396Y-45068093D01*
X80426178Y-45145423D01*
X80473458Y-45225334D01*
X80516235Y-45307827D01*
X80554509Y-45392901D01*
X80588281Y-45480556D01*
X80617549Y-45570792D01*
X80642315Y-45663609D01*
X80662578Y-45759007D01*
X80678338Y-45856987D01*
X80689595Y-45957548D01*
X80696349Y-46060689D01*
X80698601Y-46166413D01*
X80696255Y-46272447D01*
X80689218Y-46375919D01*
X80677490Y-46476828D01*
X80661071Y-46575175D01*
X80639961Y-46670960D01*
X80614159Y-46764183D01*
X80583666Y-46854842D01*
X80548482Y-46942940D01*
X80508606Y-47028475D01*
X80464040Y-47111448D01*
X80414782Y-47191858D01*
X80360832Y-47269706D01*
X80302192Y-47344991D01*
X80238860Y-47417715D01*
X80170836Y-47487875D01*
X80098122Y-47555474D01*
X80060328Y-47588002D01*
X80022307Y-47619268D01*
X79984061Y-47649271D01*
X79945589Y-47678012D01*
X79906891Y-47705491D01*
X79867967Y-47731708D01*
X79828816Y-47756663D01*
X79789440Y-47780355D01*
X79749838Y-47802784D01*
X79710010Y-47823952D01*
X79669955Y-47843857D01*
X79629675Y-47862500D01*
X79589169Y-47879880D01*
X79548436Y-47895998D01*
X79507478Y-47910853D01*
X79466293Y-47924446D01*
X79426700Y-47937003D01*
X79385091Y-47948750D01*
X79341467Y-47959687D01*
X79295826Y-47969813D01*
X79248170Y-47979130D01*
X79198498Y-47987637D01*
X79146809Y-47995333D01*
X79093105Y-48002219D01*
X79037385Y-48008296D01*
X78979649Y-48013562D01*
X78858129Y-48021664D01*
X78728545Y-48026525D01*
X78590897Y-48028145D01*
X77819191Y-48028137D01*
X77819191Y-44832810D01*
X78381088Y-44832810D01*
X78381088Y-47500008D01*
X78634300Y-47500008D01*
X78726957Y-47498764D01*
X78815620Y-47495034D01*
X78900289Y-47488817D01*
X78980964Y-47480112D01*
X79057644Y-47468921D01*
X79130330Y-47455243D01*
X79199021Y-47439078D01*
X79263718Y-47420426D01*
X79294879Y-47409489D01*
X79325664Y-47397781D01*
X79356072Y-47385299D01*
X79386103Y-47372046D01*
X79415758Y-47358019D01*
X79445036Y-47343221D01*
X79473938Y-47327649D01*
X79502462Y-47311305D01*
X79530610Y-47294189D01*
X79558381Y-47276300D01*
X79585776Y-47257638D01*
X79612793Y-47238204D01*
X79639434Y-47217997D01*
X79665698Y-47197018D01*
X79691584Y-47175265D01*
X79717094Y-47152741D01*
X79767323Y-47104519D01*
X79814311Y-47054507D01*
X79858058Y-47002706D01*
X79898565Y-46949114D01*
X79935831Y-46893733D01*
X79969857Y-46836563D01*
X80000641Y-46777602D01*
X80028186Y-46716851D01*
X80052490Y-46654311D01*
X80073553Y-46589981D01*
X80091376Y-46523861D01*
X80105958Y-46455951D01*
X80117300Y-46386251D01*
X80125401Y-46314762D01*
X80130261Y-46241482D01*
X80131882Y-46166413D01*
X80130280Y-46090749D01*
X80125476Y-46016894D01*
X80117469Y-45944848D01*
X80106259Y-45874611D01*
X80091845Y-45806182D01*
X80074230Y-45739563D01*
X80053411Y-45674752D01*
X80029389Y-45611750D01*
X80002165Y-45550556D01*
X79971738Y-45491172D01*
X79938108Y-45433596D01*
X79901275Y-45377828D01*
X79861239Y-45323869D01*
X79818001Y-45271719D01*
X79771560Y-45221377D01*
X79721916Y-45172844D01*
X79674429Y-45131668D01*
X79624210Y-45093148D01*
X79571259Y-45057285D01*
X79515576Y-45024078D01*
X79457162Y-44993528D01*
X79396015Y-44965635D01*
X79332137Y-44940398D01*
X79265527Y-44917817D01*
X79196185Y-44897894D01*
X79124111Y-44880626D01*
X79049305Y-44866016D01*
X78971768Y-44854061D01*
X78891499Y-44844764D01*
X78808498Y-44838123D01*
X78722765Y-44834138D01*
X78634300Y-44832810D01*
X78381088Y-44832810D01*
X77819191Y-44832810D01*
X77819191Y-44304680D01*
X78600540Y-44304680D01*
X78737321Y-44306413D01*
G37*
D11*
X85823875Y-65208740D02*
X85757175Y-65369492D01*
D10*
X88087654Y-48028137D02*
X87472702Y-48028137D01*
X87082024Y-47123802D01*
X85487976Y-47123802D01*
X85073189Y-48028137D01*
X84467888Y-48028137D01*
X85134804Y-46595665D01*
X85721901Y-46595665D01*
X86852928Y-46595665D01*
X86300674Y-45329598D01*
X85721901Y-46595665D01*
X85134804Y-46595665D01*
X86310326Y-44070755D01*
X88087654Y-48028137D01*
G36*
X88087654Y-48028137D02*
G01*
X87472702Y-48028137D01*
X87082024Y-47123802D01*
X85487976Y-47123802D01*
X85073189Y-48028137D01*
X84467888Y-48028137D01*
X85134804Y-46595665D01*
X85721901Y-46595665D01*
X86852928Y-46595665D01*
X86300674Y-45329598D01*
X85721901Y-46595665D01*
X85134804Y-46595665D01*
X86310326Y-44070755D01*
X88087654Y-48028137D01*
G37*
D11*
X85757175Y-65369492D02*
X85681323Y-65518341D01*
X85505828Y-65782166D02*
X85408016Y-65898056D01*
X85196836Y-66100083D02*
X85085299Y-66187134D01*
X83595483Y-66705551D02*
X83488083Y-66710434D01*
X84854909Y-66335602D02*
X84737885Y-66397934D01*
D10*
X91508965Y-87839096D02*
X91107613Y-87839096D01*
X91107613Y-85179489D01*
X91508965Y-85179489D01*
X91508965Y-87839096D01*
G36*
X91508965Y-87839096D02*
G01*
X91107613Y-87839096D01*
X91107613Y-85179489D01*
X91508965Y-85179489D01*
X91508965Y-87839096D01*
G37*
D11*
X84067811Y-66634140D02*
X83878634Y-66671372D01*
X85980865Y-64437561D02*
X85959920Y-64650498D01*
D10*
X91289345Y-138027771D02*
X91289345Y-136179474D01*
X91690697Y-136179474D01*
X91690697Y-139001007D01*
X89751114Y-136977020D01*
X89751114Y-138839096D01*
X89349762Y-138839096D01*
X89349762Y-135998612D01*
X91289345Y-138027771D01*
G36*
X91289345Y-138027771D02*
G01*
X91289345Y-136179474D01*
X91690697Y-136179474D01*
X91690697Y-139001007D01*
X89751114Y-136977020D01*
X89751114Y-138839096D01*
X89349762Y-138839096D01*
X89349762Y-135998612D01*
X91289345Y-138027771D01*
G37*
D11*
X84620864Y-66452942D02*
X84504759Y-66501083D01*
M02*
