<?xml version="1.0" encoding="UTF-8" standalone="no"?>
<!-- Created with Inkscape (http://www.inkscape.org/) -->

<svg
   width="210mm"
   height="297mm"
   viewBox="0 0 210 297"
   version="1.1"
   id="svg1"
   xml:space="preserve"
   inkscape:version="1.3.2 (091e20e, 2023-11-25)"
   sodipodi:docname="panel-graphics.svg"
   xmlns:inkscape="http://www.inkscape.org/namespaces/inkscape"
   xmlns:sodipodi="http://sodipodi.sourceforge.net/DTD/sodipodi-0.dtd"
   xmlns="http://www.w3.org/2000/svg"
   xmlns:svg="http://www.w3.org/2000/svg"><sodipodi:namedview
     id="namedview1"
     pagecolor="#ffffff"
     bordercolor="#666666"
     borderopacity="1.0"
     inkscape:showpageshadow="2"
     inkscape:pageopacity="0.0"
     inkscape:pagecheckerboard="0"
     inkscape:deskcolor="#d1d1d1"
     inkscape:document-units="mm"
     inkscape:zoom="53.821773"
     inkscape:cx="358.22863"
     inkscape:cy="787.33935"
     inkscape:window-width="1712"
     inkscape:window-height="1387"
     inkscape:window-x="512"
     inkscape:window-y="25"
     inkscape:window-maximized="0"
     inkscape:current-layer="layer1"
     showguides="false"><sodipodi:guide
       position="95,-999703"
       orientation="0,1"
       id="guide42"
       inkscape:locked="false"
       inkscape:label=""
       inkscape:color="rgb(0,134,229)" /><sodipodi:guide
       position="95.000023,212"
       orientation="1,0"
       id="guide44"
       inkscape:locked="false" /><sodipodi:guide
       position="80,212"
       orientation="0,1"
       id="guide46"
       inkscape:locked="false"
       inkscape:label=""
       inkscape:color="rgb(0,134,229)" /><sodipodi:guide
       position="110.00004,212.00001"
       orientation="1,0"
       id="guide47"
       inkscape:locked="false" /><sodipodi:guide
       position="87.500009,191.99989"
       orientation="1,0"
       id="guide48"
       inkscape:locked="false" /><sodipodi:guide
       position="102.50001,191.99989"
       orientation="1,0"
       id="guide49"
       inkscape:locked="false" /><sodipodi:guide
       position="78.261388,183.97325"
       orientation="0,1"
       id="guide50"
       inkscape:locked="false"
       inkscape:label=""
       inkscape:color="rgb(0,134,229)" /><sodipodi:guide
       position="87.5,163"
       orientation="0,1"
       id="guide55"
       inkscape:locked="false"
       inkscape:label=""
       inkscape:color="rgb(0,134,229)" /><sodipodi:guide
       position="87.500009,127"
       orientation="0,1"
       id="guide56"
       inkscape:locked="false"
       inkscape:label=""
       inkscape:color="rgb(0,134,229)" /><sodipodi:guide
       position="87.499998,112"
       orientation="0,1"
       id="guide57"
       inkscape:locked="false"
       inkscape:label=""
       inkscape:color="rgb(0,134,229)" /><sodipodi:guide
       position="87.499996,96"
       orientation="0,1"
       id="guide58"
       inkscape:locked="false"
       inkscape:label=""
       inkscape:color="rgb(0,134,229)" /><sodipodi:guide
       position="95.000021,204"
       orientation="0,1"
       id="guide59"
       inkscape:locked="false"
       inkscape:label=""
       inkscape:color="rgb(0,134,229)" /><sodipodi:guide
       position="90.999998,191.9999"
       orientation="1,0"
       id="guide67"
       inkscape:locked="false" /><sodipodi:guide
       position="98.999998,191.9999"
       orientation="1,0"
       id="guide68"
       inkscape:locked="false" /></sodipodi:namedview><defs
     id="defs1"><inkscape:path-effect
       effect="powerstroke"
       id="path-effect66"
       is_visible="true"
       lpeversion="1.3"
       scale_width="1"
       interpolator_type="CubicBezierJohan"
       interpolator_beta="0.2"
       start_linecap_type="zerowidth"
       end_linecap_type="zerowidth"
       offset_points="0,1"
       linejoin_type="extrp_arc"
       miter_limit="4"
       not_jump="false"
       sort_points="true"
       message="&lt;b&gt;Ctrl + click&lt;/b&gt; on existing node and move it" /><inkscape:path-effect
       effect="powerstroke"
       id="path-effect65"
       is_visible="true"
       lpeversion="1.3"
       scale_width="1"
       interpolator_type="CubicBezierJohan"
       interpolator_beta="0.2"
       start_linecap_type="zerowidth"
       end_linecap_type="zerowidth"
       offset_points="0,1"
       linejoin_type="extrp_arc"
       miter_limit="4"
       not_jump="false"
       sort_points="true"
       message="&lt;b&gt;Ctrl + click&lt;/b&gt; on existing node and move it" /><inkscape:path-effect
       effect="powerstroke"
       id="path-effect63"
       is_visible="true"
       lpeversion="1.3"
       scale_width="1"
       interpolator_type="CubicBezierJohan"
       interpolator_beta="0.2"
       start_linecap_type="zerowidth"
       end_linecap_type="zerowidth"
       offset_points="0,1"
       linejoin_type="extrp_arc"
       miter_limit="4"
       not_jump="false"
       sort_points="true"
       message="&lt;b&gt;Ctrl + click&lt;/b&gt; on existing node and move it" /><inkscape:path-effect
       effect="powerstroke"
       id="path-effect61"
       is_visible="true"
       lpeversion="1.3"
       scale_width="1"
       interpolator_type="CubicBezierJohan"
       interpolator_beta="0.2"
       start_linecap_type="zerowidth"
       end_linecap_type="zerowidth"
       offset_points="0,1"
       linejoin_type="extrp_arc"
       miter_limit="4"
       not_jump="false"
       sort_points="true"
       message="&lt;b&gt;Ctrl + click&lt;/b&gt; on existing node and move it" /><marker
       id="DistanceX"
       orient="auto"
       refX="0.0"
       refY="0.0"
       style="overflow:visible"><path
         d="M 3,-3 L -3,3 M 0,-5 L  0,5"
         style="stroke:#000000; stroke-width:0.5"
         id="path1" /></marker><pattern
       id="Hatch"
       patternUnits="userSpaceOnUse"
       width="8"
       height="8"
       x="0"
       y="0"><path
         d="M8 4 l-4,4"
         stroke="#000000"
         stroke-width="0.25"
         linecap="square"
         id="path2" /><path
         d="M6 2 l-4,4"
         stroke="#000000"
         stroke-width="0.25"
         linecap="square"
         id="path3" /><path
         d="M4 0 l-4,4"
         stroke="#000000"
         stroke-width="0.25"
         linecap="square"
         id="path4" /></pattern></defs><g
     inkscape:label="Layer 1"
     inkscape:groupmode="layer"
     id="layer1"><path
       style="fill:none;stroke:#000000;stroke-width:0.264583;stroke-linecap:round"
       d="M 110.00005,85.000001 V 213.50019"
       id="path5" /><path
       style="fill:none;stroke:#000000;stroke-width:0.264583;stroke-linecap:round"
       d="M 110.00005,213.50019 H 80"
       id="path6" /><path
       style="fill:none;stroke:#000000;stroke-width:0.264583;stroke-linecap:round"
       d="M 80,213.50019 V 85.000001"
       id="path7" /><path
       style="fill:none;stroke:#000000;stroke-width:0.264583;stroke-linecap:round"
       d="m 80,85.000001 h 30.00005"
       id="path8" /><path
       d="m 91,105.00011 a 3.5000001,3.5000001 0 0 0 -7,0 3.5000001,3.5000001 0 0 0 7,0 z"
       style="fill:none;stroke:#000000;stroke-width:0.264583;stroke-linecap:round"
       id="path9" /><path
       d="m 106,105.00011 a 3.5000001,3.5000001 0 0 0 -7,0 3.5000001,3.5000001 0 0 0 7,0 z"
       style="fill:none;stroke:#000000;stroke-width:0.264583;stroke-linecap:round"
       id="path10" /><path
       d="m 90.75,163.0001 a 3.2500001,3.2500001 0 0 0 -6.5,0 3.2500001,3.2500001 0 0 0 6.5,0 z"
       style="fill:none;stroke:#000000;stroke-width:0.264583;stroke-linecap:round"
       id="path11" /><path
       d="m 90.75,178.0001 a 3.2500001,3.2500001 0 0 0 -6.5,0 3.2500001,3.2500001 0 0 0 6.5,0 z"
       style="fill:none;stroke:#000000;stroke-width:0.264583;stroke-linecap:round"
       id="path12" /><path
       d="m 90.75,193.00011 a 3.2500001,3.2500001 0 0 0 -6.5,0 3.2500001,3.2500001 0 0 0 6.5,0 z"
       style="fill:none;stroke:#000000;stroke-width:0.264583;stroke-linecap:round"
       id="path13" /><path
       d="m 105.75,163.0001 a 3.2500001,3.2500001 0 0 0 -6.5,0 3.2500001,3.2500001 0 0 0 6.5,0 z"
       style="fill:none;stroke:#000000;stroke-width:0.264583;stroke-linecap:round"
       id="path14" /><path
       d="m 105.75,178.0001 a 3.2500001,3.2500001 0 0 0 -6.5,0 3.2500001,3.2500001 0 0 0 6.5,0 z"
       style="fill:none;stroke:#000000;stroke-width:0.264583;stroke-linecap:round"
       id="path15" /><path
       d="m 105.75,193.00011 a 3.2500001,3.2500001 0 0 0 -6.5,0 3.2500001,3.2500001 0 0 0 6.5,0 z"
       style="fill:none;stroke:#000000;stroke-width:0.264583;stroke-linecap:round"
       id="path16" /><path
       d="m 91,125.00011 a 3.5000001,3.5000001 0 0 0 -7,0 3.5000001,3.5000001 0 0 0 7,0 z"
       style="fill:none;stroke:#000000;stroke-width:0.264583;stroke-linecap:round"
       id="path17" /><path
       d="m 106,125.00011 a 3.5000001,3.5000001 0 0 0 -7,0 3.5000001,3.5000001 0 0 0 7,0 z"
       style="fill:none;stroke:#000000;stroke-width:0.264583;stroke-linecap:round"
       id="path18" /><path
       style="fill:none;stroke:#ff0000;stroke-width:0.264583;stroke-linecap:round"
       d="m 79.496001,213.50019 h 1.007998"
       id="path19" /><path
       style="fill:none;stroke:#ff0000;stroke-width:0.264583;stroke-linecap:round"
       d="m 80,214.00289 v -1.00806"
       id="path20" /><path
       style="fill:none;stroke:#ff0000;stroke-width:0.264583;stroke-linecap:round"
       d="M 86.996007,105.00012 H 88.00399"
       id="path21" /><path
       style="fill:none;stroke:#ff0000;stroke-width:0.264583;stroke-linecap:round"
       d="m 87.500011,105.50415 v -1.00806"
       id="path22" /><path
       style="fill:none;stroke:#ff0000;stroke-width:0.264583;stroke-linecap:round"
       d="m 101.996,105.00012 h 1.00801"
       id="path23" /><path
       style="fill:none;stroke:#ff0000;stroke-width:0.264583;stroke-linecap:round"
       d="m 102.50001,105.50415 v -1.00806"
       id="path24" /><path
       style="fill:none;stroke:#ff0000;stroke-width:0.264583;stroke-linecap:round"
       d="M 86.996007,163.00022 H 88.00399"
       id="path25" /><path
       style="fill:none;stroke:#ff0000;stroke-width:0.264583;stroke-linecap:round"
       d="m 87.500011,163.50399 v -1.0078"
       id="path26" /><path
       style="fill:none;stroke:#ff0000;stroke-width:0.264583;stroke-linecap:round"
       d="M 86.996007,177.99998 H 88.00399"
       id="path27" /><path
       style="fill:none;stroke:#ff0000;stroke-width:0.264583;stroke-linecap:round"
       d="m 87.500011,178.50401 v -1.00779"
       id="path28" /><path
       style="fill:none;stroke:#ff0000;stroke-width:0.264583;stroke-linecap:round"
       d="M 86.996007,193.00027 H 88.00399"
       id="path29" /><path
       style="fill:none;stroke:#ff0000;stroke-width:0.264583;stroke-linecap:round"
       d="m 87.500011,193.50298 v -1.00806"
       id="path30" /><path
       style="fill:none;stroke:#ff0000;stroke-width:0.264583;stroke-linecap:round"
       d="m 101.996,163.00022 h 1.00801"
       id="path31" /><path
       style="fill:none;stroke:#ff0000;stroke-width:0.264583;stroke-linecap:round"
       d="m 102.50001,163.50399 v -1.0078"
       id="path32" /><path
       style="fill:none;stroke:#ff0000;stroke-width:0.264583;stroke-linecap:round"
       d="m 101.996,177.99998 h 1.00801"
       id="path33" /><path
       style="fill:none;stroke:#ff0000;stroke-width:0.264583;stroke-linecap:round"
       d="m 102.50001,178.50401 v -1.00779"
       id="path34" /><path
       style="fill:none;stroke:#ff0000;stroke-width:0.264583;stroke-linecap:round"
       d="m 101.996,193.00027 h 1.00801"
       id="path35" /><path
       style="fill:none;stroke:#ff0000;stroke-width:0.264583;stroke-linecap:round"
       d="m 102.50001,193.50298 v -1.00806"
       id="path36" /><path
       style="fill:none;stroke:#ff0000;stroke-width:0.264583;stroke-linecap:round"
       d="M 86.996007,124.99997 H 88.00399"
       id="path37" /><path
       style="fill:none;stroke:#ff0000;stroke-width:0.264583;stroke-linecap:round"
       d="m 87.500011,125.504 v -1.00779"
       id="path38" /><path
       style="fill:none;stroke:#ff0000;stroke-width:0.264583;stroke-linecap:round"
       d="m 101.996,124.99997 h 1.00801"
       id="path39" /><path
       style="fill:none;stroke:#ff0000;stroke-width:0.264583;stroke-linecap:round"
       d="m 102.50001,125.504 v -1.00779"
       id="path40" /><path
       style="fill:none;stroke:#000000;stroke-width:0.264583px;stroke-linecap:butt;stroke-linejoin:miter;stroke-opacity:1"
       d="m 90.98808,111.71062 c -5.29e-4,2.5 -2.499997,2.5 -2.499997,2.5"
       id="path41" /><path
       style="fill:none;stroke:#000000;stroke-width:0.264583px;stroke-linecap:butt;stroke-linejoin:miter;stroke-opacity:1"
       d="m 101.44577,111.77675 -2.5,2.5"
       id="path42" /><path
       d="m 92.011406,133.95435 h 1.098983 v 0.0879 q 0,0.29973 -0.07062,0.53055 -0.0689,0.21359 -0.232543,0.39963 -0.370347,0.41685 -0.942232,0.41685 -0.558104,0 -0.956012,-0.40307 -0.397907,-0.4048 -0.397907,-0.97152 0,-0.57877 0.404798,-0.98185 0.404798,-0.4048 0.985295,-0.4048 0.31178,0 0.58222,0.12747 0.258381,0.12747 0.50815,0.41341 l -0.285942,0.27389 q -0.327283,-0.43581 -0.797538,-0.43581 -0.422023,0 -0.707966,0.29111 -0.285942,0.28595 -0.285942,0.71658 0,0.44442 0.318671,0.73208 0.298,0.267 0.645954,0.267 0.296277,0 0.532266,-0.19982 0.235988,-0.20153 0.263549,-0.48231 h -0.663179 z m 3.045457,0.73898 h -1.138601 l -0.296278,0.64595 h -0.432358 l 1.316023,-2.8267 1.269515,2.8267 h -0.439248 z m -0.163641,-0.37724 -0.394463,-0.90434 -0.41341,0.90434 z m 1.615746,-1.63642 v 2.65961 h -0.401353 v -2.65961 z m 0.639064,2.65961 v -2.84048 l 1.939584,2.02916 v -1.84829 h 0.401353 v 2.82153 l -1.939585,-2.02399 v 1.86207 z"
       id="text55"
       style="font-size:3.52777px;line-height:1.25;font-family:Futura;-inkscape-font-specification:'Futura, Normal';stroke-width:0.264583"
       aria-label="GAIN" /><path
       d="m 94.768339,168.7391 v 0.47542 q -0.347954,-0.29111 -0.720024,-0.29111 -0.409965,0 -0.69074,0.29456 -0.282497,0.29283 -0.282497,0.71658 0,0.41857 0.282497,0.70624 0.282497,0.28766 0.692463,0.28766 0.211873,0 0.360011,-0.0689 0.08268,-0.0345 0.170532,-0.093 0.08957,-0.0586 0.187758,-0.14124 v 0.48403 q -0.344509,0.19465 -0.723469,0.19465 -0.570162,0 -0.973237,-0.39791 -0.401353,-0.40135 -0.401353,-0.96807 0,-0.50815 0.335896,-0.90606 0.413411,-0.48748 1.0697,-0.48748 0.358289,0 0.692463,0.19465 z m 0.640786,-0.14297 0.735526,1.84312 0.745862,-1.84312 h 0.439249 l -1.193723,2.85942 -1.166163,-2.85942 z"
       id="text56"
       style="font-size:3.52777px;line-height:1.25;font-family:Futura;-inkscape-font-specification:'Futura, Normal';stroke-width:0.264583"
       aria-label="CV" /><path
       d="m 93.7107,183.67967 v 2.65961 h -0.401352 v -2.65961 z m 0.639064,2.65961 v -2.84048 l 1.939585,2.02916 v -1.84829 h 0.401352 v 2.82153 l -1.939584,-2.02399 v 1.86207 z"
       id="text58"
       style="font-size:3.52777px;line-height:1.25;font-family:Futura;-inkscape-font-specification:'Futura, Normal';stroke-width:0.264583"
       aria-label="IN" /><path
       d="m 91.382682,200.9888 q 0,-0.56155 0.411688,-0.96463 0.409966,-0.40307 0.985296,-0.40307 0.568439,0 0.974959,0.40652 0.408243,0.40652 0.408243,0.97668 0,0.57361 -0.409965,0.97324 -0.411688,0.40135 -0.993908,0.40135 -0.515041,0 -0.925006,-0.35657 -0.451307,-0.39446 -0.451307,-1.03352 z m 0.404798,0.005 q 0,0.44098 0.296278,0.72519 0.294555,0.28422 0.680405,0.28422 0.418578,0 0.706243,-0.28938 0.287665,-0.29284 0.287665,-0.71314 0,-0.42546 -0.28422,-0.71313 -0.282497,-0.28939 -0.699353,-0.28939 -0.415133,0 -0.701075,0.28939 -0.285943,0.28594 -0.285943,0.70624 z m 3.281447,-1.32291 v 1.60197 q 0,0.34278 0.111965,0.50126 0.167087,0.22909 0.470254,0.22909 0.304891,0 0.471977,-0.22909 0.111966,-0.15331 0.111966,-0.50126 v -1.60197 h 0.401353 v 1.71221 q 0,0.4203 -0.261827,0.69246 -0.294555,0.30317 -0.723469,0.30317 -0.428913,0 -0.721746,-0.30317 -0.261826,-0.27216 -0.261826,-0.69246 v -1.71221 z m 2.93866,0.37724 v 2.28237 h -0.401353 v -2.28237 h -0.611503 v -0.37724 h 1.622636 v 0.37724 z"
       id="text59"
       style="font-size:3.52777px;line-height:1.25;font-family:Futura;-inkscape-font-specification:'Futura, Normal';stroke-width:0.264583"
       aria-label="OUT" /><path
       d="m 82.819194,94.838821 v -3.72346 h 0.781348 q 0.561895,0 0.887457,0.110932 0.349677,0.108521 0.634242,0.36897 0.576365,0.525722 0.576365,1.381828 0,0.858518 -0.60048,1.389063 -0.301446,0.265273 -0.631831,0.36897 -0.308681,0.103697 -0.875399,0.103697 z m 0.561896,-0.528133 h 0.253214 q 0.378616,0 0.629419,-0.07958 0.250803,-0.0844 0.453375,-0.267684 0.41479,-0.378616 0.41479,-0.986331 0,-0.612538 -0.409967,-0.993565 -0.36897,-0.340031 -1.087617,-0.340031 H 83.38109 Z m 3.586,-3.195327 v 2.242758 q 0,0.479902 0.156752,0.701766 0.233922,0.320739 0.658358,0.320739 0.426848,0 0.66077,-0.320739 0.156751,-0.214629 0.156751,-0.701766 v -2.242758 h 0.561896 v 2.397098 q 0,0.588423 -0.366559,0.96945 -0.412378,0.424436 -1.012858,0.424436 -0.60048,0 -1.010447,-0.424436 -0.366558,-0.381027 -0.366558,-0.96945 v -2.397098 z m 5.114935,2.819123 h -1.594046 l -0.41479,0.904337 h -0.605303 l 1.842437,-3.957382 1.777325,3.957382 H 92.472699 Z M 91.852926,93.40635 91.300677,92.140278 90.721901,93.40635 Z m 2.26205,-2.290989 v 3.195327 h 1.094852 v 0.528133 h -1.656747 v -3.72346 z m 3.340021,0 1.029739,2.580377 1.044209,-2.580377 h 0.614945 l -1.671211,4.003202 -1.632631,-4.003202 z m 5.734703,0.20016 v 0.665593 q -0.48713,-0.407555 -1.00803,-0.407555 -0.57395,0 -0.96704,0.412378 -0.3955,0.409967 -0.3955,1.003212 0,0.586011 0.3955,0.988743 0.3955,0.402732 0.96945,0.402732 0.29662,0 0.50402,-0.09646 0.11575,-0.04823 0.23874,-0.130225 0.12541,-0.08199 0.26286,-0.197748 v 0.67765 q -0.48231,0.272507 -1.01285,0.272507 -0.79823,0 -1.36254,-0.557072 -0.56189,-0.561895 -0.56189,-1.355301 0,-0.711412 0.47025,-1.268484 0.57878,-0.682474 1.49758,-0.682474 0.50161,0 0.96945,0.272507 z m 2.98552,2.618963 h -1.59404 l -0.41479,0.904337 h -0.60531 l 1.84244,-3.957382 1.77733,3.957382 h -0.61495 z m -0.2291,-0.528134 -0.55224,-1.266072 -0.57878,1.266072 z"
       id="text60"
       style="font-size:4.93889px;line-height:1.25;font-family:Futura;-inkscape-font-specification:'Futura, Normal';stroke-width:0.264583"
       aria-label="DUAL VCA" /><path
       style="fill:none;stroke:#000000;stroke-width:0.264583px;stroke-linecap:butt;stroke-linejoin:miter;stroke-opacity:1"
       d="m 93.750023,113.02675 h 2.5"
       id="path60"
       sodipodi:nodetypes="cc" /><path
       style="fill:#000000;stroke:#000000;stroke-width:0.264583px;stroke-linecap:butt;stroke-linejoin:miter;stroke-opacity:1"
       d="m 96.250023,112.34613 0.832652,0.68062 -0.832652,0.68062 z"
       id="path66" /><path
       style="fill:#000000;stroke:#000000;stroke-width:0.264583px;stroke-linecap:butt;stroke-linejoin:miter;stroke-opacity:1"
       d="m 93.750023,112.34613 -0.832652,0.68062 0.832652,0.68062 z"
       id="path67" /><circle
       style="fill:#000000;stroke:none;stroke-width:0.1;stroke-linecap:round;stroke-linejoin:bevel;paint-order:stroke fill markers"
       id="path1573"
       cx="95.000023"
       cy="209.13696"
       r="2.5" /><path
       style="fill:#ffffff;stroke:none;stroke-width:0.264583px;stroke-linecap:butt;stroke-linejoin:miter;stroke-opacity:1"
       d="m 95.189613,207.52156 0.0628,0.008 0.471526,0.016 0.08972,-0.017 h 0.102679 l 0.03589,0.012 0.01496,0.01 0.01395,0.0129 0.006,0.0199 0.001,0.016 -0.008,0.0239 -0.01196,0.019 -0.03589,0.0299 -0.01096,0.005 -0.05184,0.003 -0.01894,-0.005 -0.01595,-0.006 -0.03988,-0.01 -0.01894,-0.005 -0.392773,0.001 -0.04686,-0.007 -0.01496,-0.004 -0.0309,0.002 -0.01595,0.006 -0.01197,0.0119 -0.004,0.017 -0.001,0.0169 0.001,0.0419 0.006,0.0807 0.01894,0.21433 0.003,0.16249 -0.006,0.0349 0.002,0.19838 0.006,0.0239 0.01395,0.0319 0.01894,0.0119 0.02293,0.007 0.0947,0.002 0.210343,0.0199 0.141558,10e-4 0.0967,-0.018 h 0.05284 l 0.01994,0.006 0.01794,0.01 0.01396,0.0129 0.01,0.018 0.003,0.0239 -0.005,0.0189 -0.007,0.0139 -0.01197,0.016 -0.01496,0.012 -0.01595,0.011 -0.02093,0.007 -0.03788,0.001 -0.108661,-0.0189 -0.341931,-0.008 -0.05981,0.002 -0.131589,0.0179 -0.06081,-0.001 -0.01994,-0.012 -0.01,-0.0209 -0.01,-0.0289 -0.009,-0.0399 -0.005,-0.0877 0.007,-0.0209 -0.004,-0.16349 -0.003,-0.13159 -0.003,-0.17446 -0.01395,-0.16548 -0.01496,-0.1595 -0.006,-0.0538 0.004,-0.0159 0.01296,-0.016 0.01695,-0.009 0.02293,-0.017 z"
       id="path964" /><path
       id="path1079"
       style="fill:#ffffff;stroke:none;stroke-width:0.264583px;stroke-linecap:butt;stroke-linejoin:miter;stroke-opacity:1"
       d="m 94.701136,207.48268 -0.04984,0.007 -0.237258,0.0259 -0.05482,0.007 -0.0668,0.007 -0.03489,-0.002 -0.06779,0.001 -0.02193,-0.005 -0.04685,-0.003 -0.03889,-0.002 -0.03289,0.006 -0.0048,0.005 -0.01409,0.0113 -0.01058,0.0106 -0.0078,0.0296 7e-4,0.0205 0.0078,0.0261 0.0014,0.12759 0.0049,0.1445 0.0099,0.13747 0.0056,0.129 0.0014,0.19102 0.0021,0.21359 0.0028,0.062 0.005,0.0219 0.0092,0.0169 0.0078,0.0134 0.01198,0.012 0.02256,0.012 0.01833,0.004 0.07049,-0.003 0.07401,0.002 0.172702,-0.006 0.200195,-0.004 0.202939,-0.004 0.04486,-0.002 0.02591,-0.009 0.01993,-0.0139 0.009,-0.018 0.002,-0.0279 -0.009,-0.0429 -0.01595,-0.10068 -0.02093,-0.17047 -0.02492,-0.24923 -0.01994,-0.18741 -0.003,-0.11365 -0.006,-0.0857 10e-4,-0.0578 -0.005,-0.0408 -0.01196,-0.0359 -0.01695,-0.0249 -0.01694,-0.0149 -0.02592,-0.014 -0.02293,-0.005 z m -0.04769,0.15096 0.02609,0.007 0.01551,0.0106 0.01127,0.0148 0.01269,0.024 0.0092,0.0416 0.0078,0.0395 0.0099,0.05 0.01268,0.13957 0.0014,0.0268 -0.0056,0.0162 -0.0099,0.0134 -0.01763,0.008 -0.05216,0.0113 -0.110669,0.019 -0.124065,0.0148 -0.138864,0.008 -0.03736,0.007 -0.06767,0.003 -0.02961,-0.004 -0.01903,-0.0127 -0.0085,-0.012 -0.0071,-0.0585 -7e-4,-0.0663 -0.01269,-0.24813 0.0056,-0.007 0.0056,-0.004 0.01198,-0.006 0.02326,-0.006 0.03384,-0.008 0.05076,-0.01 0.120534,-0.005 0.08812,-0.001 z m 0.0014,0.52164 0.07824,5e-4 0.01058,0.006 0.0063,0.01 0.0028,0.0458 0.01481,0.0952 0.0092,0.0895 0.0063,0.1001 -0.0014,0.0324 -0.0078,0.012 -0.02044,0.0127 -0.03172,0.012 -0.06414,0.007 -0.20795,0.0141 -0.229092,0.002 -0.0275,-0.008 -0.0078,-0.0155 -0.0014,-0.0268 -0.0014,-0.05 -0.0099,-0.0592 -0.0148,-0.11349 0.0014,-0.0627 -0.0042,-0.0529 0.0049,-0.0134 0.02185,-0.002 0.06485,-0.003 0.0423,-0.003 0.07472,-0.0106 0.141685,-0.0169 z" /><path
       style="fill:#ffffff;stroke:none;stroke-width:0.264583px;stroke-linecap:butt;stroke-linejoin:miter;stroke-opacity:1"
       d="m 94.083181,209.11959 0.09516,0.0169 0.100096,0.0127 0.0719,0.002 h 0.278438 l 0.350338,-0.0198 0.258699,-0.0176 0.276323,-0.0176 0.265044,-0.0162 0.124768,-0.006 0.08811,-5e-4 0.02537,0.006 0.02044,0.01 0.0092,0.012 0.0085,0.0183 v 0.0225 l -0.0035,0.0345 -0.007,0.0346 -0.0078,0.0423 -0.0014,0.0198 v 0.23261 l 0.0092,0.17482 0.01973,0.26716 0.01622,0.22275 0.02326,0.25024 0.0028,0.062 -0.0021,0.038 -0.0028,0.0225 -0.01198,0.019 -0.01058,0.008 -0.01058,0.01 -0.01269,0.001 h -0.01692 l -0.01057,-0.004 -0.01551,-0.01 -0.0085,-0.0127 -0.01058,-0.0162 -0.007,-0.0226 -0.01058,-0.05 -0.0071,-0.0768 -0.01269,-0.12054 -0.0099,-0.11983 -0.007,-0.16707 -0.0035,-0.12335 -0.0028,-0.26575 -0.0028,-0.16566 -0.0042,-0.0902 -0.0056,-0.0332 -0.0056,-0.0332 -0.0092,-0.0219 -0.01058,-0.0176 -0.0099,-0.0113 -0.0141,-0.006 -0.02397,-0.003 -0.14662,5e-4 -0.241783,0.01 -0.17834,0.009 -0.111375,0.006 -0.05428,0.005 -0.04159,0.007 -0.02537,0.006 -0.0099,0.0155 -0.0078,0.038 0.0056,0.21006 0.007,0.29747 0.0141,0.30381 0.0099,0.16777 0.0063,0.0726 0.0056,0.0811 -0.0014,0.0557 -0.0078,0.0296 -0.01199,0.0176 -0.01762,0.0141 -0.02397,0.0162 -0.02467,0.005 -0.01832,-0.005 -0.02397,-0.0176 -0.0092,-0.0212 -0.01058,-0.0225 0.0014,-0.26223 -0.0028,-0.28619 -0.0021,-0.16142 -0.0042,-0.2439 -0.0042,-0.1727 -0.01128,-0.0853 -0.0063,-0.0211 -0.01128,-0.0148 -0.01973,-0.009 -0.03101,-0.004 -0.108556,0.004 -0.29183,0.0148 -0.143096,0.007 -0.09164,0.005 -0.04793,0.002 -0.01691,0.006 -0.01058,0.008 -0.0056,0.012 -0.0035,0.0183 0.0035,0.0233 0.01692,0.15579 0.007,0.10855 0.0042,0.11067 -0.0014,0.16425 -7e-4,0.28055 0.0014,0.19032 0.0035,0.16072 -0.005,0.031 -0.0141,0.0268 -0.01058,0.0105 -0.01128,0.01 -0.0148,0.008 -0.01692,0.003 -0.01269,-5e-4 -0.0141,-0.003 -0.0092,-0.008 -0.0099,-0.0127 -0.0071,-0.0134 -0.0063,-0.0219 -7e-4,-0.0394 0.0078,-0.0663 -7e-4,-0.13816 v -0.1297 l -0.0071,-0.11208 -0.01621,-0.21218 -0.0028,-0.11772 0.0036,-0.16142 -7e-4,-0.16565 7e-4,-0.0698 -0.0085,-0.0444 -0.0078,-0.0402 -0.0071,-0.0232 -0.0021,-0.0148 v -0.0395 l 0.0042,-0.0254 0.0099,-0.0148 0.01833,-0.0127 0.01691,-0.007 0.02326,-0.004 h 0.02255 z"
       id="path1085" /></g></svg>
